<?xml version="1.0" encoding="UTF-8"?>
<svg id="Layer_2" data-name="Layer 2" xmlns="http://www.w3.org/2000/svg" viewBox="0 0 1254 1254">
  <defs>
    <style>
      .cls-1 {
        fill: #fff;
      }
    </style>
  </defs>
  <g id="Layer_1-2" data-name="Layer 1">
    <g>
      <path class="cls-1" d="M0,1254V0h1254v1254H0ZM986.46,323.34c6.13-.1,11.91-1.06,16.84-2.93,9.03-3.43,12.06-13.84,7.01-21.76-4.18-6.55-11.38-9.42-20.19-8.22,2.07-15.35-7.66-29.25-22.72-31.14s-28.65,8.49-29.68,23.9c-6.17-2.24-11.44-1.52-16,1.96-3.59,2.75-4.75,8.29-5.15,13.11-5.64,1.06-10.92,4.4-12.07,9.79s1.5,11.06,7.03,13.55c4.55,2.05,10.15,2.75,15.48,2.67l59.44-.93ZM630.21,408.8l16.57-14.09c16.75-14.25,35.73-34.31,32.88-56.24-1.75-13.44-13.27-21.39-26.68-18.16-11.04,2.66-19.04,11.6-23.68,22.08-9.24-17.54-27.46-26.82-41.63-16.46-5.82,4.26-9.37,11.89-8.89,20.19,1.49,25.85,30.75,46.3,51.42,62.68ZM290.5,438.43c11.53-.48,22.35-4.47,23.29-14.12.42-4.28-1.4-8.47-4.72-11.35-4.99-4.32-11.46-4.89-18.11-4.06-.67-5.16-2.77-10.12-6.13-12.43-4.64-3.19-9.4-3.97-15.49-3.05,1.04-16.82-9.17-32.2-25.75-37.09s-33.89.11-45.33,12.96c-7.6,8.53-10.64,19.98-8.57,31.32-7.43-.42-14.82.86-19.89,6.08-4.72,4.86-7.09,11.17-4.97,17.75,4.18,12.99,21.9,14.18,37.25,14.67,29.54.95,58.34.57,88.41-.68ZM435.54,1008.52c27.16.45,56.52-3.41,72.47-26.03l1.6.74c10.87,24.38,37.74,34.88,63.46,38.7,17.39,2.59,34.31,2.08,51.92,2.07l39-.03c29.3-.02,67.63-10.14,82.65-36.83,11.98,14.97,34.12,21.8,52.16,24.05,24.98,3.11,49.59,3.22,74.57.15,21.86-2.69,46.76-10.79,58.59-29.28,11.1-17.34,4.74-36.65-7.23-52.74l5.23-1.21,52.22-11.86c37.21-8.45,74.46-11.47,112.52-12.65,5.86-.18,11.37-.09,17.19-2.05-23.65-1.51-45.64.39-68.99,2.71-40.88,4.05-80.1,12.61-119.75,23.37l-10.36-11.39c16.91-9.77,14.32-26.11,9.38-43.53,6.66-3.3,10.23-8.64,10.46-15.49l.4-12.33c.12-3.51-1.73-7.01-2.63-10.2-1.74-6.17-3.95-11.34-11.64-11.73-8.45-.43-9.55,3.35-11.75.47s6.6-.56,12.45-9.52c5.55,6.91,14.24,10.22,22.23,6.85,1.56-.66,4.12-3.76,3.68-5.27-.39-1.32-2.2-3.19-2.94-4.99l-2.41-5.82c6.95,1.87,12.51.75,17.66-3.49,4.31-3.56,7.47-9.63,5.75-15.92-3.74,2.37-7.97,3.32-11.26,2.28-2.35-.74-5.96-4.06-5.23-7.51.87-4.1,3.51-7.75,5.61-11.37,8.28-14.26,7.92-31.91-2.39-44.77-6.69-8.34-15.85-13.47-26.18-15.96-.41-7.14-1.62-13.94-4.78-19.96-2.72-5.19-7.92-6.11-13.16-3.37-10-42.06-55.88-62.89-94.58-48.17l-13.13,5c-23.98,10.98-38.41,34.74-38.93,61.47-5.9-8.13-11.28-14.32-18.51-19.45,9.37-12.4,11.63-27.82,6.95-42.36-5.31-16.49-18.11-27.59-24.41-44.48-8.44-22.61-2.14-50.37-16.13-78.99-18.43-37.69-58.84-60.53-100.38-47.72-13.52,4.17-24.36,11.88-33.74,22.47-17.16,19.38-25.98,44.25-27.6,70.21-.96,15.42-4.7,29.03-12.98,42.11-10.44,16.49-16.27,36.73-7.57,54.3l6.83,13.78c-15.4,5.11-25.22,15.95-34.49,28.56.34-5.31-.99-9.95-3.77-13.49l2.84-13.6,3.2.63c4.11-11.14,2.59-22.23-1.6-32.79,2.33,2.04,6.57,3.46,7.18,1.18-2.59-16.88-13.92-30.02-28.55-36.56,3.78-3.18,6.47-6.48,6.53-10.64-9.08-.13-16.74-.84-25-3.3-9.82-2.93-20.04-3.86-30.05-1.9,1.57-2.15,2.77-3.94,3.78-6.59-21.54-.56-44.59,7.89-55.8,26.75l-1.78-8.83-.5-2.43c-.6-2.93-12.15,6.33-9.7,21.79-9.18,1.05-17.21,5.3-19.75,14.81l9.62-.17c-14.48,14.21-16.23,34.73-8.53,53.16l2.82.26,6.92,13.74c-1.81,7.19-.09,13.96,4.83,19.59,4.12,4.7,9.91,6.13,15.76,6.28,8.65,7.44,17.45,14.03,28.94,17.06.88,4.55.62,9.13-1.4,12.33-19.56,3.24-35.84,14.58-45.99,30.73l-14.86,28.6c-4.24-4.54-8.57-6.44-13.27-4.23-6.38-1.76-11.47,3.03-12.2,9.25-2.84,3.12-3.98,6.72-4.17,10.92-1.35,7.5-.65,19.03,3.13,23.11,4.04,4.36,9.23,7.21,14.69,9.39l-2.78,19.68c-.6,4.27,1.48,8.97,3.33,13.42-33.98-5.99-68.1-11.28-103.16-11.36-27.95-.07-55.56-1.61-83.16,5.34,54.71-3.99,107.46-4.28,161.07,4.57l27.32,4.51c2.79,3.06,5.45,5.34,10.19,7.45-12.92,17.63-16.59,41.53-8.22,62.67,11.55,29.2,42.42,34.94,71.73,35.42l28.56.47ZM1053.51,646.24l58.47-.85c14.61-.21,35.37-1.48,43.57-10.76,6.45-7.3,6.59-17.66,2.02-25.62s-13.19-11.82-22.54-10.82c2.02-10.97-1.12-20.85-7.99-28.66-6.45-7.35-16.32-11.44-26.74-11.11-18.56.59-33.85,13.78-35.37,32.83-6.62-2.91-13.11-3.13-19.74.15-5,2.47-9.68,7.6-10.47,14.39-9.73-3.62-20.3-2.2-28.48,4.47-6.91,5.63-9.58,15.45-4.81,23.37,3.44,5.71,9.95,9.24,16.71,10.3,11.54,1.82,22.93,2.48,35.36,2.3ZM1170.32,966.98c-3.32,1.89-6.22,3.75-7.56,7.06l14.45-7.22c-7.16-4.52-14.58-2.26-22.56.31l16.14-21.38c-12.96,1.32-22.1,8.9-30.9,17.44,2.35-13.11,8.59-23.72,14.29-36.54-15.54,6.36-23.53,20.46-32.1,33.88.96-26.72,14.15-45.85,15.38-72.02.11-2.26,1.19-6.7,3.59-7.14,20.55-3.78,30.14-20.3,31.67-41.5-19.54,3.89-30.92,19.12-34.75,38.91-2.13-12.43-4.23-23.46-9.55-35.16,6.38,1.59,12.36-.38,14.05-6.16s-1.45-11.22-5.81-15.1c5.46-1.35,10.12-3.69,12.15-8.59,1.14-2.75.81-7.1-.56-9.43-3.25-5.54-11.65-5.32-19.12-1.27.97-4.69,1.11-9.97-1.32-13.79-2.29-3.6-6.27-5.58-10.08-5.1-8.28,1.03-11.59,10.39-9.15,19.78-8.93-4.54-18.21-3.02-20.65,3.57-1.19,3.22-.78,7.25,1.48,10.16,2.74,3.53,7.7,5.17,12.06,6.06-6.12,5.92-8.12,14.22-3.66,18.97,2.02,2.15,5.97,3.53,8.99,3.13,6.06-.79,9.66-4.72,12.31-10.83,3.68,3.84,6.22,8.38,8.28,13.65,6.77,17.41,9.16,35.79,5.05,53.76-4.21-19.72-14.11-32.27-33.93-35.1.8,20.14,11.65,35.33,31.14,37.82,1.63,2.47,1.19,5.85.22,8.66-4.83,13.94-8.95,27.58-10.85,42.18-.73,5.6-1.62,10.8.23,16.67,6.45-12.53,11.37-24.82,21.74-33.69l7.13-6.1c-5.42,12.48-11.48,24.05-11.83,37.96,8.71-9.44,16.54-17.1,27.82-20.98-6,7.27-12.31,14.03-14.3,22.7,7.88-3.25,13.11-6.37,20.49-5.57ZM117.15,959.92l6.85,14.99,8.18-14.75c4.19-7.56,9.6-14.41,16.94-19.78-4.11,11.14-8.42,20.79-9.09,31.89,6.39-6.09,11.57-10.72,19.1-13.49-2.78,5.54-7.07,9.75-5.71,15.68l10.85-19.25c-8.67.3-14.41,5.38-20.26,9.63,1.47-11.73,7.5-20.12,11.04-30.84-13.55,5.95-20.44,17.34-28.27,29.35l3.1-25.35c1.6-13.08,2.47-25.59.67-38.59-.38-2.71,1.65-4.97,4.38-5.45,18.74-3.32,27.18-18.14,28.27-36.95-18.6,3.11-31.19,16.58-33.18,35.58l-7.34-27.36c-1.97-7.34-3.2-14.53-3.84-22.45,3.12,2.68,5.53,5.16,8.75,6.48,4.56,1.88,9.36-.07,12-3.21,2.78-3.31,3.73-8.7.78-12.49l-4.64-5.95c3.76-.98,7.59-2.67,10.22-5.64,4.29-4.84,3.78-12.57-1.94-15.85-5.11-2.92-11.21-1.28-16,2.05.82-5.65.9-11.32-2.45-15.66-2.68-3.47-7.26-4.5-11.49-3.17-7.27,2.29-8.74,10.01-7.95,18.78-4.19-2.13-9.4-3.6-13.77-1.96-6.66,2.51-8.34,10.29-4.3,16,2.51,3.56,7.12,5.19,11.26,6.32-5.33,4.94-8.47,11.9-4.67,17.88,2.36,3.72,7.21,5.07,11.34,4.16,3.58-.78,7.01-3.67,9.73-7.61,2.03,25.4,14.25,48.25,12.81,74.51-5.46-18.02-14.38-31.11-33.51-33.37,2.05,20.13,10.05,32.96,30.04,36.09,3.7.58,3.29,6.83,2.9,9.75l-4.96,36.65-5.39-10.95c-1.77,2.37-2.33,3.82-3.86,7.58-4.82-12.06-12.67-22.42-23.18-30.55-.76-.16-2.71-.56-2.62.03l.45,3.01c5.33,9.56,9.65,19.24,11.39,29.55-8.37-7.84-15.98-15.8-27.4-17.69,6.33,9.5,10.48,17.87,14.75,27.31,1.16-8.95-4.95-14.59-8.22-22.27,10.2,4.52,16.7,12.53,24.59,21.31.07-13.07-5.76-23.87-10.07-35.38,10.75,9.69,16.42,21.2,21.58,34.46l2.19-13.03ZM38.38,912.42l54.76-11.45c-.68-.63-1.96-1.42-3.05-1.92l-52.85,11.09c-.42.49-1.43,1.97-.95,2.03l2.08.25ZM1220.58,918.1c.1-1.96-.95-3.37-2.24-3.67-25.89-6.04-52.28-12.89-79.08-11.17,28.51,4.73,54.98,6.17,81.32,14.84ZM1106.34,969.69l1.81-.59c-.08-8.26.33-15.97,2.02-23.5,1.8,5.29,2.57,9.16,5.51,13.07-.12-7.34-1.71-12.93-5.74-19.12-3.65,5.87-3.57,11.79-4.38,17.8-7.34-12.26-13.64-25.36-27.16-31.36,5.33,13.67,10.93,25.27,13.4,38.02-8.42-9.14-16.79-17.7-29.42-20.35,6.45,10.09,10.49,19.19,14.57,30.37,1.86-9.68-4.83-16.76-8.44-25.51,11.49,4.88,18.1,14.25,26.29,23.32-.27-14.54-5.77-26.27-10.68-39.36,11.1,10.06,17.95,23.17,22.22,37.22ZM251.77,969.14c-2.4,6.76-4.18,12.3-4.69,18.45l14.04-8.19c-2.47,4.61-4.67,6.33-4.76,10.88l11.1-13.87c-7.68-.28-11.61,3.04-17.91,6.55l6.94-19.44c-8.32,3.44-13.11,10.25-16.46,18.2-3.21-7.1-5.14-14.16-12.29-18.3l2.89,19.45c-5.38-3.42-9.18-7.65-16.04-7.37l10.46,13.93c-.8-4.36-2.19-6.38-4.05-10.65l11.7,9.54-1.13-18.6,8.22,18.12c3.31-8,6.23-14.54,11.98-18.7ZM1010.22,970.49c3.01,5.03,4.56,9.67,6.58,15.54,2.37-5.87,4.66-10.03,9.24-13.34-1.26,5.28-3.75,9.06-2.3,14.16l6.95-19.01c-6.93,1.84-10.7,6.92-13.43,12.56-4.38-13.32-12.03-20.25-10.73-13.43l2.72,14.22c-5.16-2.89-8.51-6.59-14.02-6.02l9.79,13.19c-.53-4.08-1.81-5.79-3.8-9.93l10.3,8.16-1.3-16.1Z"/>
      <path d="M435.54,1008.52l-28.56-.47c-29.3-.48-60.17-6.22-71.73-35.42-8.37-21.14-4.7-45.04,8.22-62.67-4.74-2.11-7.41-4.38-10.19-7.45l-27.32-4.51c-53.61-8.85-106.35-8.56-161.07-4.57,27.6-6.94,55.21-5.41,83.16-5.34,35.06.09,69.19,5.37,103.16,11.36-1.85-4.46-3.93-9.15-3.33-13.42l2.78-19.68c-5.47-2.18-10.65-5.03-14.69-9.39-3.77-4.07-4.48-15.6-3.13-23.11.2-4.2,1.33-7.8,4.17-10.92.74-6.23,5.82-11.01,12.2-9.25,4.7-2.21,9.04-.32,13.27,4.23l14.86-28.6c10.15-16.15,26.43-27.49,45.99-30.73,2.02-3.2,2.28-7.78,1.4-12.33-11.49-3.04-20.29-9.62-28.94-17.06-5.84-.15-11.64-1.58-15.76-6.28-4.93-5.63-6.65-12.4-4.83-19.59l-6.92-13.74-2.82-.26c-7.7-18.43-5.95-38.96,8.53-53.16l-9.62.17c2.54-9.52,10.57-13.77,19.75-14.81-2.45-15.45,9.1-24.71,9.7-21.79l.5,2.43,1.78,8.83c11.21-18.85,34.25-27.3,55.8-26.75-1.01,2.65-2.21,4.44-3.78,6.59,10.01-1.96,20.23-1.03,30.05,1.9,8.26,2.46,15.92,3.17,25,3.3-.05,4.16-2.74,7.47-6.53,10.64,14.63,6.54,25.95,19.68,28.55,36.56-.61,2.28-4.85.87-7.18-1.18,4.19,10.56,5.72,21.65,1.6,32.79l-3.2-.63-2.84,13.6c2.78,3.54,4.11,8.18,3.77,13.49,9.28-12.62,19.1-23.45,34.49-28.56l-6.83-13.78c-8.7-17.57-2.87-37.81,7.57-54.3,8.29-13.08,12.03-26.69,12.98-42.11,1.62-25.97,10.44-50.83,27.6-70.21,9.38-10.59,20.22-18.3,33.74-22.47,41.55-12.81,81.96,10.03,100.38,47.72,13.99,28.62,7.69,56.38,16.13,78.99,6.31,16.89,19.11,27.99,24.41,44.48,4.68,14.54,2.42,29.95-6.95,42.36,7.23,5.14,12.62,11.33,18.51,19.45.52-26.73,14.95-50.49,38.93-61.47l13.13-5c38.7-14.72,84.58,6.11,94.58,48.17,5.24-2.74,10.44-1.81,13.16,3.37,3.16,6.02,4.37,12.82,4.78,19.96,10.33,2.48,19.49,7.62,26.18,15.96,10.31,12.86,10.68,30.52,2.39,44.77-2.1,3.62-4.74,7.27-5.61,11.37-.73,3.45,2.88,6.77,5.23,7.51,3.29,1.04,7.52.09,11.26-2.28,1.72,6.29-1.44,12.36-5.75,15.92-5.14,4.24-10.71,5.36-17.66,3.49l2.41,5.82c.74,1.8,2.56,3.67,2.94,4.99.44,1.51-2.12,4.61-3.68,5.27-7.99,3.38-16.68.06-22.23-6.85-5.85,8.96-14.6,6.71-12.45,9.52s3.29-.9,11.75-.47c7.69.39,9.9,5.56,11.64,11.73.9,3.19,2.74,6.69,2.63,10.2l-.4,12.33c-.22,6.84-3.8,12.19-10.46,15.49,4.93,17.42,7.52,33.76-9.38,43.53l10.36,11.39c39.65-10.76,78.87-19.32,119.75-23.37,23.35-2.32,45.34-4.21,68.99-2.71-5.82,1.96-11.34,1.87-17.19,2.05-38.06,1.18-75.31,4.2-112.52,12.65l-52.22,11.86-5.23,1.21c11.97,16.09,18.33,35.4,7.23,52.74-11.84,18.49-36.73,26.59-58.59,29.28-24.98,3.08-49.59,2.97-74.57-.15-18.03-2.25-40.17-9.08-52.16-24.05-15.01,26.69-53.34,36.81-82.65,36.83l-39,.03c-17.61.01-34.53.52-51.92-2.07-25.72-3.83-52.58-14.32-63.46-38.7l-1.6-.74c-15.95,22.62-45.31,26.47-72.47,26.03ZM636.91,846.59c5.18.5,11.16-2.46,12.68-7.92,2.62-9.43-2.61-17.16-9.76-23.82,9.91,3.66,14.82,13.85,13.09,24.3,4.92-5.11,4.66-11.71,1.81-17.94-8.22-17.99-2.77-29.03,13.36-40,14.42-9.8,21.08-24.77,19.05-42.6,4.47,9.99,2.79,22.08-3.37,31.16-10.7,15.77-31.24,21.23-28.84,37.08.92,6.09,5.88,10.15,10.24,11.72,5.93,2.14,11.93,2.17,17.19-2.13-6.83-.43-12.22-5.22-12.65-12.48-.48-8.1,3.32-15.64,8.89-21.33l9.83-10.03,1.24,1.14-14.08,15.87,15.12-7.95c5.85-3.08,12.13-5.49,16.29-10.53,5.8-7.04,6.37-15.16,3.48-23.56-5.94-17.25-2.94-28.62,8.28-42.77,12.23-15.43,15.75-33.33,11.13-53.62,6.52,8.31,5.12,18.94,4.45,28.27l3.44,2.43c.85.6,15.54-19.9,5.52-43.24-8.69-20.25-24.69-30.29-27.76-61.92l-2.85-29.37c-3.96-28.03-19.67-52.48-44.03-66.95-21-12.47-46.33-14.33-68.56-4.28-10.34,4.68-18.58,11.56-25.84,20.23-31.61,37.74-21.99,77.62-31.05,94.93l-11.65,22.25c-20.62,39.39,9.37,54.6,10.87,80.91,1.01,17.72-15.56,32.47-6.67,52.88,4.51,10.36,13.08,18.08,23.56,22.32l14.99,6.05-13.27-16.75c-8.44-12.59-9.46-28.01-2.96-41.82,7.05-14.96,6.64-30.57-.94-45.31-2.62-5.09-5.44-10.06-5.98-16.41l9.59,17.66c7.71,14.2,7.42,29.79.59,44.35s-5.12,30.98,5.42,43.92l13.39,16.45c8.66,10.63,12.51,27.97,1.31,37.61,6.41.99,12.51-1.64,16.11-5.61,4.42-4.87,5.82-11.29,4.32-17.82-3.05-13.35-18.2-22.76-16.66-38.12,2.83,8.33,6.61,15.75,12.12,22.81,3.8,4.88,7.03,10.45,8.21,16.57,2.36,12.25,9.53,21.99,20.85,27.43,4.93,2.36,9.7,5.63,12.62,10.19,3.41,5.31,2.53,11.09-2.14,15.76ZM438.35,741.42l2.48,3.03c9.6-4.3,17.42-8.93,25-15.66,11.23-11.63,18.71-25.65,22.43-41.38l3.1-2.37,2.49-21.16c1.23.89,2.38,2.71,4.06,5.66,2.72-11.15-.37-21.6-6.61-32.86l10.05,3.24c-4.35-14-14.34-26.15-28.3-30.9l-2.64-.9c-.36-.12.17-1.36.39-1.62,2.45-1.62,6.27-4.73,8.41-7-8.25-.69-15.29-1.74-22.79-3.84-12.2-3.42-23.1-3.23-35.91.08,1.82-3.64,3.23-4.89,6.04-8.52-21.37,2.43-39.47,9.84-50.58,29.9-2.74-4.15-3.69-8.03-4.59-12.47-4.4,6.22-5.19,13.12-3.28,20.51-7.66-1.18-14.23,2.12-18.66,7.68l11.31,1.53c-15.55,12.47-18.92,29.91-14.61,47.01l3.07-6.99c.56,9.36,1.98,16.81,7.03,24.46l1.61,2.44c.35.52,1.92-.07,3.19-.36,8.94,21.87,26.33,37.48,49.19,43.74.61.38,2.62,1.49,2.93.88l1.43-2.81c10.97,5,13.33,5.86,23.74-1.32ZM874.15,738.46c-4.98,3.13-10.61,1-13.04-3.65-4.81-9.21-10.56-22.82-6.04-29.16,4.61-6.47,17.17-4.23,26.45-1.62,2.5-2.15,6.41-3.7,9.49-4.06,3.41-4.74,6.77-9.75,12.15-13.53-4.83-22.93-22.5-40.6-44.6-47.89-18.81-6.21-36.1-3.42-53.87,3.74-16.52,6.66-29.72,18.16-36.48,35.16-3.98,10.01-6.3,20.34-5.1,31.59l27.6,56.2c24.1,22.22,61.88,24.01,87.18,2.37.38-7.87,2.25-15.02,3.97-22.71l4.05-18.11c-3.7,4.3-6.87,8.6-11.78,11.68ZM760.84,851.59c14.15,17.52,31.84,28.62,53.63,33.17,23.79,4.97,48.02,4.94,71.9-.24,10.87-11.63,12.25-36.74,1.9-48.52l-40.64-8.61c-12.37-3.96-24.27-8.41-34.45-16.71-3.8-3.87-7.46-9.73-10.02-14.79l-27.89-55.16-18.25-34.69c-5.21-9.9-13.54-17.31-23.56-22.93-2.43,9.67-7.39,18.42-13.88,26.39-8.66,10.64-11.17,23.29-6.14,36.17,2.86,7.33,3.12,16.07-.68,22.98-5.29,9.59-14.54,14.25-24.56,17.51-7.78,2.53-14.48,8.53-14.99,16.77-.22,3.57,2.22,7.49,4.55,8.95,2.69,1.68,7.04.94,9.43-.55.4-.05,1.97.72,1.8,1.24l-.84,2.58c-7.64,10.11-20.99,11.02-31.6,2.09,5.39,11.38,3.98,21.44-5.33,27.97-6.27,4.4-14.29,7.05-21.18,1.99,3.5-2.06,6.31-4.03,7.2-6.65s.25-6.86-1.66-9.15c-6.57-7.85-22.55-9.62-30.4-28.31-2.57,6.99-6.91,11.49-12.03,13.87-5.99,2.77-13.01,2.81-17.99-1.7,2.92-1.65,6.37-3.39,7.41-5.53,6.4-13.18-.39-27.17-13.49-32.79l-18.19-7.8c-11.13-6.53-19.1-17.23-20.73-30.11-1.15-9.09,1.42-17.69,4.95-25.86,5.38-12.43,5.36-25.99-1.84-37.51-13.07,4.86-23.98,13.09-30.82,24.86l-23.52,40.43-26.23,45.75c-4.79,8.35-10.43,17.59-18.46,22.02l-10.6,5.86c-16.08,7.29-32.89,11.1-50.4,13.62-14.47,2.08-15.63,34.33-2.63,49.54,28.86,5.65,69,4.9,93.94-10.25,24.81-15.08,46.39-47.24,61.7-72.31l-.19-15c0-.75.96-3.01,1.41-2.57l1.4,1.4,3.17,56.92c1.91,20.06-2.33,37.73-10.15,55.95-4.48,10.43-11.02,22.42-10.21,33.91s11.33,19.92,19.02,26.33c25.85,21.55,66.15,25,99.32,25.04,36.14.05,80.92-5.18,105.45-32.67,17.43-19.53,10.39-23.67,1.77-46.71l-8.96-23.94-2.66-10.34c-1.23-4.79-1.01-12.03-.7-17.41l2.34-40.21-8.92-22.72c-.24-.6.24-2.5.65-2.8.29-.21.84-.25,1,.03l.96,1.7,12.08,26.91c8.17,15.14,16.81,28.97,27.83,42.61ZM920.91,706.66c-.84-6.39-2.02-11.52-3.97-16.41-1.5-3.75-5.34-4.96-8.89-3.07-5.88,3.12-11,8.64-13.64,14.28l3.89,7.33c7.25-2.05,14.32-2.42,22.61-2.13ZM480.74,715.83c11.21-3.27,16.84-16.52,10.65-25.47l-10.65,25.47ZM886.79,716.72l7.54-6.74c1.74-1.55-1.85-6.67-4.07-6.81s-7.06,1.99-6.25,4.59l2.79,8.96ZM884.96,719.17l-4.48-10.92c-4.7-3.45-12.29-3.97-18.23-3.08-10.66,1.61-4.11,16.78,2.01,28.42,4.51,8.57,17.34-3.17,20.7-14.43ZM372.3,725.75l-13.99-20.51c-2.73,10.3,5,19.54,13.99,20.51ZM906.08,804.42c.5,5.57-1.75,9.37-6.34,12.18,3.71,2.59,8.46,2.37,12.91-.33,2.81-1.71,4.55-5.57,6.56-10.58,2.29,5.85,4.61,9.67,9.28,11.45s9.49,1.89,13.8-.69l-3.06-5.51-5.62-14.67c4.88,3.38,7.83,6.71,13.02,6.23,6.66-.62,12.05-4.92,13.85-12.2-12.21,3.64-12.71-5.01-18.67-5.97,1.35-5.81,4.52-11.86,7.86-17.47,9.61-16.15,6.24-35.56-8.53-47.15-13.77-10.8-37.26-14.53-50.13-2.69,10.63,12.9,8.99,23,7.33,37.94-1.17,10.57,2.57,19.64,10.34,26.32,4.31,3.7,8.51,8.92,7.22,15.22-2.42-4.74-4.51-9.52-8.66-12.76-9.79-7.65-14.21-19.06-11.72-31.62,2.29-11.54,2.28-24.02-6.54-32.94-.14,9.72-1.21,17.52-3.84,25.83-6.19,19.55-4.93,34.96,12.25,46.53,4.41,2.97,8.16,7.02,8.68,12.86ZM451.97,756.81c5.84.04,8.62.57,13.1,2.13l23.65-42.84c-3.82,1.78-6.89,2.66-10.59,3.06-7.11,10.43-16.14,18.64-27.8,24.13-.68,4.62.06,9.88,1.65,13.52ZM408.8,747.32l-2.15,13.21c13.89,3.09,29.19,2.39,43.26-1.68-2.38-4.2-3.04-8.74-3-14.09-3.55,2.93-8.01,3.04-11.4,1.84-5.19,3.49-11.99,5.13-17.43.38-2.46,2.34-6.22,2.58-9.28.35ZM367.81,811.11c1.49,5.91.04,9.92-.67,15.18l22.67-4.55c15.1-3.03,29.12-7.84,42.75-15.68,4.02-2.31,8.18-7.5,10.76-11.61l20.45-32.57-7.7-2.12c-18.23,7.02-37.29,7.51-56.07,2.33l-13.41,5.42c-21.12,8.54-32.57,32.67-40.99,53.01l6.03,9.52,11.65.79c1.15-7.46,1.51-13.12,4.52-19.71ZM901,812.17c4.48-6.81.75-13.43-4.9-17.35-8.45-5.86-15.26-13.3-17.25-23.82-6.17,5.18-12.87,8.7-20.36,11.65-1.23,1.87-.2,6.91,1.73,7.85,16.04.58,31.54,9.36,40.78,21.67ZM812.65,790.72l.96-8.03-18.65-9.35,9.14,17.52,8.55-.13ZM859.23,793.92c-3.44-2.28-4.76-5.54-4.56-10.12-12.33,3.57-25.06,3.45-37.74-.33-.28,4.21-.8,6.91-3.28,10.55,13.74,5.88,30.63,5.91,45.58-.1ZM905.67,827.12c-.58-1.34-2.68-4.76-4.08-5.65-3.11-1.13-7.32-2.55-8.46-6.5l4.96-1.09c-6.85-9.74-17.3-14.78-28.39-18.79-3.61-1.31-5.31-.7-8.63,1-17.1,8.73-37.23,7.07-54.4-1.83,3.91,8.23,7.1,14.3,15.21,18.72,31.64,17.24,62.51,16.62,68.73,21.27,2.82,2.11,5.82,4.44,8.63.92l6.44-8.04ZM527.49,819.21l-.8-17.44-4.65,6.45,5.46,11ZM529.29,847.95l-.44-16.7-8.94-19.58c-8.08,12.54-16.03,23.42-25.72,34.67l1.36,15.63c12.99-2.08,23.84-6.33,33.74-14.02ZM736.24,821.25l-5.72-9-1.56,23.06,7.28-14.06ZM362.01,870.26c-5.01-13.15-5.12-24.42-.46-36.02l-13.25-1.39c-3.93-15.07-20.19-21.5-15.9-13.28l3.16,6.06c-5.19-1-6.83-4.63-7.91-9.51-2.12.04-6,1.76-6.55,3.62-.77,2.58-.34,4.87-.03,8.97l-3.64-1.93c-1.17,3.13-1.05,6.83.19,10.4-.91.96-2.8,2.39-2.56,3.48l1.12,5.12c.66,3,.58,6.75,2.67,9.21,6.13,7.2,14.4,8.41,22.99,10.46l20.18,4.83ZM764.48,872.25l1.24-9.93c-10.91-11.33-19.27-23.52-27.56-37.19l-9.3,18.01c-.74,3.88-.79,8.1-.28,12.19,10.17,9.32,21.55,15.08,35.9,16.92ZM928.31,847.29c1.44-2.98,1.47-6.74.11-8.21-.71.06-3.2.61-3.06.03l.59-2.49c.39-1.67.35-5.67-.64-7.14-.84-1.23-3.41-2.45-4.97-2.93-1.36,4.79-2.48,7.96-7.53,8.28l4.71-8.32c-6.52-1.51-11.26,3.66-14.17,8.87-1.83,3.29-4.21,4.78-8.5,4.56,5.35,12.18,4.58,24.84.22,37.26l11.45-3.21c7.97-2.24,22.29-2.9,22.04-17.16,2.3-3.21,1.79-6.39-.26-9.55ZM397.42,973.49l42.55,1.82c20.63.88,50.38-7.95,63.79-24.38.57-7.85,1.71-14.81,4.13-22.22-1.17-11.15-3.54-22.66-9.08-32.41-2.12,10.06,1.55,19.26-3.61,28.35l-1.22-41.65-2.67-33.6c-10.34,10.53-19.84,19.47-32.76,25.11-25.89,11.3-56.46,11.54-84.45,7.55-8.29-1.18-8.29-8.48-12.9-9l-2.33,13.92c-4.51,15.57-7.79,30.48-9.52,46.68-.47,4.38-3.13,10.15-1.45,14.39,5.93,14.94,33.62,24.77,49.53,25.45ZM516.94,894.02c4.24-9.39,7.66-18.02,10.35-27.98l-3.74-10.24c-9.31,5-17.5,7.84-27.83,9.42,3.08,13.31,7.81,27.67,21.23,28.8ZM764.54,875.55c-11.43-1.47-21.26-4.6-30.75-11.73-2.92,4.91-2.77,9.82-.62,14.95l8.55,20.42c12.8,1.74,19.87-10.65,22.82-23.64ZM894.75,905.66l-1.77-22.95c-2.98,2.83-5.48,5.31-9.39,6-24.9,4.44-50,4.48-74.39-1.73-15.42-4.03-28.52-10.45-40.57-22.08l-1.65,42.14c11.09,5.55,22.3,8.82,34.61,10.49,29.64,4.02,66.81,2.85,93.17-11.87ZM354.77,888.36l3.37-15.3-16.43-4.91-7.7-.83c-1.88,7.96-3.57,16.28-1.94,24.34,1.8,8.92,8.84,16.1,17.98,15.76l4.71-19.06ZM898.29,906.3l11.01,7.23c16.48-6.7,14.58-22.35,10.12-39.12l-13.24,3.21-10.21,2.97,2.33,25.7ZM515.52,897.3l-14.76-5.38,8.58,23.68,6.18-18.31ZM763.85,906.7l-.45-7.4c-5.2-8.2-7.25,4.05-20.31,2.63l6.15,18.25c4.01-5.23,8.89-9.72,14.61-13.48ZM749.16,927.63c6.61,19.05,6.63,38.84-1,56.63,13.21,15.93,35.51,21.78,55.64,24.04,21.94,2.46,43.62,2.47,65.57.05,23.23-2.57,49.79-10.01,61.24-30.7,13.42-24.26-11.36-55.55-34.49-68.95l-11.74,5.71c7.54,7.29,15.31,17,16.5,29.07-5.69-10.14-10.93-19.35-18.31-28.62-32.81,10.93-73.06,10.66-106.2-.07-6.43,6.88-10.34,14.19-15.34,22.06.72-9.7,6.86-16.11,12.67-22.94l-8.06-4.21c-6.64,4.72-13.3,9.92-16.47,17.93ZM447.51,978.37c-18.64,1.03-37.2.37-55.65-2.24-13.07-1.85-24.99-5.88-35.54-13.49-17.52-12.63-11.3-19.6-10.09-30.16l2.68-23.29c-15.77,18.04-18.73,43.33-9.49,64.3,12.14,27.55,44.5,31.18,72.58,31.31l34.01.16c22.73.11,49.37-6.96,60.72-27.11l-3.13-21.85c-13.43,13.93-36.31,21.28-56.08,22.37ZM749.38,968.43c1.97-11.54,1.12-22.85-1.8-34.74-17.32,30.54-53.29,42.44-87.5,45.5-23.11,2.07-45.65,2.12-68.64-.7-31.86-3.91-65.28-16.18-81.3-45.05-6.94,26.67-2.29,53.04,19.59,68.89,20.7,15,49.44,18.31,75.27,18.33l49.98.05c38.87.04,87.17-10.03,94.39-52.29Z"/>
      <path d="M117.15,959.92l-2.19,13.03c-5.16-13.26-10.83-24.77-21.58-34.46,4.3,11.51,10.14,22.3,10.07,35.38-7.89-8.78-14.39-16.79-24.59-21.31,3.28,7.68,9.39,13.32,8.22,22.27-4.26-9.43-8.42-17.8-14.75-27.31,11.42,1.89,19.03,9.85,27.4,17.69-1.74-10.31-6.06-19.98-11.39-29.55l-.45-3.01c-.09-.59,1.86-.19,2.62-.03,10.51,8.14,18.37,18.49,23.18,30.55,1.54-3.77,2.1-5.21,3.86-7.58l5.39,10.95,4.96-36.65c.4-2.92.8-9.17-2.9-9.75-19.99-3.13-27.99-15.95-30.04-36.09,19.12,2.25,28.04,15.35,33.51,33.37,1.44-26.26-10.78-49.11-12.81-74.51-2.72,3.95-6.15,6.83-9.73,7.61-4.13.91-8.98-.44-11.34-4.16-3.8-5.98-.66-12.94,4.67-17.88-4.14-1.14-8.75-2.76-11.26-6.32-4.04-5.71-2.36-13.49,4.3-16,4.37-1.65,9.59-.17,13.77,1.96-.79-8.77.68-16.49,7.95-18.78,4.23-1.33,8.81-.3,11.49,3.17,3.35,4.34,3.27,10.01,2.45,15.66,4.8-3.33,10.89-4.97,16-2.05,5.73,3.27,6.24,11,1.94,15.85-2.63,2.97-6.46,4.66-10.22,5.64l4.64,5.95c2.95,3.79,2.01,9.18-.78,12.49s-7.44,5.09-12,3.21c-3.22-1.33-5.62-3.8-8.75-6.48.65,7.92,1.88,15.12,3.84,22.45l7.34,27.36c1.99-19,14.58-32.47,33.18-35.58-1.09,18.81-9.53,33.63-28.27,36.95-2.73.48-4.76,2.74-4.38,5.45,1.81,13,.93,25.51-.67,38.59l-3.1,25.35c7.84-12.01,14.72-23.4,28.27-29.35-3.55,10.72-9.58,19.11-11.04,30.84,5.85-4.25,11.59-9.33,20.26-9.63l-10.85,19.25c-1.36-5.93,2.93-10.14,5.71-15.68-7.53,2.77-12.71,7.4-19.1,13.49.67-11.1,4.98-20.75,9.09-31.89-7.34,5.37-12.74,12.21-16.94,19.78l-8.18,14.75-6.85-14.99ZM117.44,832.32c3.16,5.9,4.65,10.86,9.87,13.3,3.23,1.51,7.58.98,9.86-1.79,4.53-5.49-.97-13.03-10.15-18.26,6.7-1.6,12.4-1.06,16.61-5.97,1.77-2.07,2.4-6.18,1.35-8.06-4.1-7.36-13.54-2.78-22.33,4.01,1.32-6.46,3.36-11.69,2.24-17.28-.76-3.79-4.24-6.4-7.38-6.34-3.38.05-6.41,2.45-7.69,6.23-2.3,6.8,1.7,11.92,1.76,16.69.03,2.03-6.94-6.04-14.38-6.26-4.03-.12-7.26,1.97-8.09,5.13-2.01,7.73,7.32,11.82,18.52,12.23-8.29,6.12-15.15,13.68-9.77,19.56,1.84,2.01,5.92,2.64,8.83,1.35,6.01-2.66,7.7-7.97,10.76-14.54ZM134.57,891.07c15.54-3.13,23.37-14.85,25.49-30.35-12.89,3.36-23.17,13.07-25.73,25.8,7.24-6.98,11.32-15.58,20.01-19.2-6.97,8.61-14.09,14.88-19.76,23.75ZM107.23,897.24c8.02,2.43,9.43,9.02,15.46,13.17-3.63-11.33-12.59-20.05-24.66-22.83l4.35,13.07c3.95,8.62,11.63,15.41,21.38,15.78l-16.54-19.18Z"/>
      <path d="M1170.32,966.98c-7.38-.8-12.61,2.32-20.49,5.57,1.99-8.67,8.31-15.43,14.3-22.7-11.28,3.88-19.11,11.54-27.82,20.98.35-13.91,6.4-25.48,11.83-37.96l-7.13,6.1c-10.37,8.87-15.28,21.16-21.74,33.69-1.85-5.87-.95-11.07-.23-16.67,1.9-14.6,6.01-28.24,10.85-42.18.97-2.81,1.41-6.19-.22-8.66-19.49-2.49-30.34-17.69-31.14-37.82,19.81,2.82,29.72,15.37,33.93,35.1,4.1-17.97,1.72-36.35-5.05-53.76-2.05-5.27-4.59-9.81-8.28-13.65-2.65,6.11-6.25,10.05-12.31,10.83-3.02.39-6.97-.98-8.99-3.13-4.46-4.76-2.46-13.05,3.66-18.97-4.36-.9-9.32-2.54-12.06-6.06-2.26-2.91-2.67-6.93-1.48-10.16,2.43-6.58,11.72-8.11,20.65-3.57-2.44-9.39.88-18.75,9.15-19.78,3.8-.47,7.79,1.51,10.08,5.1,2.43,3.82,2.28,9.1,1.32,13.79,7.47-4.05,15.86-4.26,19.12,1.27,1.37,2.33,1.7,6.68.56,9.43-2.03,4.9-6.7,7.24-12.15,8.59,4.36,3.87,7.54,9.19,5.81,15.1s-7.67,7.75-14.05,6.16c5.32,11.71,7.42,22.73,9.55,35.16,3.83-19.8,15.21-35.02,34.75-38.91-1.53,21.2-11.12,37.72-31.67,41.5-2.4.44-3.48,4.88-3.59,7.14-1.22,26.17-14.42,45.3-15.38,72.02,8.57-13.42,16.56-27.52,32.1-33.88-5.7,12.82-11.94,23.43-14.29,36.54,8.79-8.54,17.94-16.12,30.9-17.44l-16.14,21.38c7.98-2.56,15.39-4.83,22.56-.31l-14.45,7.22c1.34-3.31,4.24-5.18,7.56-7.06ZM1119.03,827.17c3.17,5.78,4.79,9.98,9.12,12.59,3.15,1.9,7.21,1.63,9.59-.5,2.23-1.99,3.3-6.32,1.21-9.34-2.65-3.83-6.53-6.25-10.71-9.75,7.2-.93,12.85-.87,16.8-6.22,1.37-1.86,1.95-5.67.94-7.34-1.17-1.93-4.51-3.88-6.99-3.67-5.72.48-9.1,4.12-14.72,7.76.95-6.22,2.92-11.29,2.03-16.77-.6-3.7-3.77-6.35-6.95-6.52-2.99-.16-6.51,2.1-7.64,5.4-1.99,5.87-.02,11.08,1.77,17.93-5.31-2.82-9.37-6.08-14.34-6.59-3.92-.4-7.64,2.59-8.26,5.46-.67,3.09.78,6.91,4.01,8.74,3.98,2.26,9.02,2.13,14.86,2.97-4.99,4.14-9.65,6.67-10.81,12.73-.64,3.33.64,6.7,3.55,8.02,1.9.86,5.66.69,7.9-.64,5.11-3.05,5.85-8.43,8.61-14.26ZM1142.66,877.52c15.66-2.7,24.73-17.3,26.54-33.78-13.89,4.88-23.65,16.2-26.35,29.23,7.09-7.53,11.01-15.96,19.96-21.26l-20.15,25.81ZM1113.57,884.66c1.11-.35,3.42.05,3.97.67l9.71,10.84c-2.47-12.99-12.8-21.86-25.45-25.48,1.48,14.46,11.16,29.84,25.7,30.36l-13.94-16.38Z"/>
      <path d="M1053.51,646.24c-12.43.18-23.82-.48-35.36-2.3-6.76-1.06-13.27-4.59-16.71-10.3-4.76-7.92-2.1-17.74,4.81-23.37,8.18-6.67,18.75-8.09,28.48-4.47.79-6.79,5.47-11.92,10.47-14.39,6.63-3.28,13.11-3.07,19.74-.15,1.52-19.05,16.81-32.24,35.37-32.83,10.42-.33,20.29,3.76,26.74,11.11,6.86,7.81,10.01,17.69,7.99,28.66,9.34-1.01,18.16,3.18,22.54,10.82s4.42,18.33-2.02,25.62c-8.2,9.28-28.96,10.55-43.57,10.76l-58.47.85ZM1079.5,642.92l46.91-1.36c6.31-.18,12.53-1.7,18.47-3.58s10.13-6.52,11.76-11.12c2.13-6.04,1.22-12.14-2.32-17.21-5.14-7.35-14.01-10.01-23.27-7.72,3.3-10.95,1.07-21.35-5.37-29.18-6.53-7.93-16.03-11.89-26.72-11.14-17.97,1.26-31.93,15.49-31.23,34.61-7.26-4.24-14-5.56-20.97-2.15-5.85,2.86-9.1,8.84-10.08,16.21-10.31-5.34-21.38-4.01-29.19,3.18-3.77,3.46-5.92,8.62-5.11,13.48,1.71,10.24,14.37,15.19,24.64,15.32l52.48.66Z"/>
      <path d="M290.5,438.43c-30.07,1.25-58.87,1.63-88.41.68-15.36-.49-33.07-1.69-37.25-14.67-2.12-6.58.25-12.9,4.97-17.75,5.07-5.22,12.46-6.5,19.89-6.08-2.07-11.34.97-22.78,8.57-31.32,11.45-12.85,28.82-17.83,45.33-12.96s26.79,20.27,25.75,37.09c6.09-.92,10.85-.14,15.49,3.05,3.36,2.31,5.46,7.27,6.13,12.43,6.64-.83,13.12-.26,18.11,4.06,3.32,2.88,5.13,7.07,4.72,11.35-.94,9.66-11.76,13.64-23.29,14.12ZM288.74,435.58c10.75-.41,22.21-4.13,22.26-12.08.02-2.82-1.81-6.52-4.06-8.36-5.43-4.46-12.06-4.48-19.1-2.12.93-6.1-.99-11.11-5.29-14.16-4.64-3.29-9.75-3.81-16.56-1.11,2.61-17.39-6.51-33.4-23.43-38.43-15.4-4.58-32.16.4-42.47,12.64-7.7,9.15-9.66,20.36-6.56,32.49-9.22-2.58-17.28-.55-22.97,6.19-2.92,3.46-4.18,8.36-2.81,12.89,2.67,8.81,15,11.61,25.73,12.12,31.77,1.5,62.95,1.16,95.26-.08Z"/>
      <path d="M630.21,408.8c-20.67-16.38-49.93-36.82-51.42-62.68-.48-8.3,3.07-15.93,8.89-20.19,14.17-10.37,32.39-1.09,41.63,16.46,4.63-10.48,12.64-19.41,23.68-22.08,13.41-3.23,24.93,4.71,26.68,18.16,2.85,21.93-16.13,41.99-32.88,56.24l-16.57,14.09ZM630.18,404.95l21.08-18.71c6.94-6.16,12.98-13.13,18.14-20.79,9.32-13.83,11.33-32.77-1.43-40.32-6.28-3.72-12.9-3.16-19.09-.18-9.93,4.78-15.12,14.12-19.44,24.71-4.25-8.42-8.15-15.19-14.92-20.14-7.98-5.83-18.55-6.91-26.2-.1-5.79,5.15-7.71,13.67-5.91,21.24,5.49,23.05,29.44,39.25,47.76,54.29Z"/>
      <path d="M986.46,323.34l-59.44.93c-5.33.08-10.93-.62-15.48-2.67-5.52-2.49-8.14-8.29-7.03-13.55s6.43-8.73,12.07-9.79c.4-4.81,1.55-10.36,5.15-13.11,4.55-3.48,9.82-4.2,16-1.96,1.03-15.4,14.64-25.79,29.68-23.9s24.78,15.79,22.72,31.14c8.81-1.2,16.01,1.67,20.19,8.22,5.06,7.92,2.02,18.33-7.01,21.76-4.93,1.87-10.71,2.83-16.84,2.93ZM988.47,320.41c5.38-.08,10.54-1.31,14.48-3.24,6.66-3.26,8.61-10.88,4.7-16.89-4.46-6.85-12.56-8.74-21.12-5.91,3.01-11.14-.44-21.67-8.81-27.72-8.14-5.89-19.84-6.27-27.85.03-6.59,5.18-9.92,11.99-9.45,21.11-5.93-3.2-11.53-4.03-15.97-.82s-5.67,8.37-3.76,14.51c-4.48-.14-8.41.5-11.22,3.41-2.02,2.09-3.15,6.7-1.1,9.9,2.78,4.34,9.04,6.63,14.69,6.55l65.41-.93Z"/>
      <path d="M1106.34,969.69c-4.27-14.05-11.12-27.16-22.22-37.22,4.91,13.08,10.41,24.82,10.68,39.36-8.2-9.07-14.8-18.44-26.29-23.32,3.6,8.75,10.3,15.83,8.44,25.51-4.08-11.18-8.12-20.28-14.57-30.37,12.63,2.65,21,11.21,29.42,20.35-2.47-12.75-8.07-24.35-13.4-38.02,13.52,5.99,19.82,19.09,27.16,31.36.81-6,.73-11.93,4.38-17.8,4.03,6.19,5.62,11.77,5.74,19.12-2.93-3.91-3.7-7.78-5.51-13.07-1.68,7.53-2.1,15.24-2.02,23.5l-1.81.59Z"/>
      <path d="M251.77,969.14c-5.75,4.16-8.66,10.71-11.98,18.7l-8.22-18.12,1.13,18.6-11.7-9.54c1.86,4.26,3.25,6.29,4.05,10.65l-10.46-13.93c6.86-.27,10.66,3.95,16.04,7.37l-2.89-19.45c7.15,4.14,9.08,11.2,12.29,18.3,3.35-7.95,8.14-14.76,16.46-18.2l-6.94,19.44c6.31-3.51,10.23-6.82,17.91-6.55l-11.1,13.87c.09-4.55,2.29-6.27,4.76-10.88l-14.04,8.19c.5-6.15,2.29-11.69,4.69-18.45Z"/>
      <path d="M1220.58,918.1c-26.34-8.66-52.81-10.11-81.32-14.84,26.8-1.72,53.19,5.13,79.08,11.17,1.29.3,2.34,1.71,2.24,3.67Z"/>
      <path d="M1010.22,970.49l1.3,16.1-10.3-8.16c1.99,4.14,3.27,5.85,3.8,9.93l-9.79-13.19c5.51-.58,8.86,3.13,14.02,6.02l-2.72-14.22c-1.3-6.82,6.35.12,10.73,13.43,2.74-5.64,6.5-10.72,13.43-12.56l-6.95,19.01c-1.44-5.1,1.05-8.88,2.3-14.16-4.58,3.3-6.87,7.47-9.24,13.34-2.02-5.87-3.57-10.51-6.58-15.54Z"/>
      <path d="M38.38,912.42l-2.08-.25c-.48-.06.52-1.54.95-2.03l52.85-11.09c1.08.5,2.37,1.28,3.05,1.92l-54.76,11.45Z"/>
      <path class="cls-1" d="M760.84,851.59c-11.02-13.64-19.66-27.47-27.83-42.61l-12.08-26.91-.96-1.7c-.16-.28-.7-.24-1-.03-.41.29-.89,2.2-.65,2.8l8.92,22.72-2.34,40.21c-.31,5.38-.53,12.63.7,17.41l2.66,10.34,8.96,23.94c8.62,23.04,15.65,27.18-1.77,46.71-24.54,27.49-69.32,32.71-105.45,32.67-33.17-.04-73.48-3.49-99.32-25.04-7.69-6.41-18.24-15.34-19.02-26.33s5.73-23.48,10.21-33.91c7.82-18.21,12.07-35.88,10.15-55.95l-3.17-56.92-1.4-1.4c-.45-.45-1.42,1.82-1.41,2.57l.19,15c-15.3,25.07-36.89,57.23-61.7,72.31-24.94,15.16-65.08,15.91-93.94,10.25-13-15.21-11.84-47.46,2.63-49.54,17.51-2.52,34.32-6.33,50.4-13.62l10.6-5.86c8.03-4.44,13.67-13.68,18.46-22.02l26.23-45.75,23.52-40.43c6.85-11.76,17.75-20,30.82-24.86,7.2,11.53,7.22,25.09,1.84,37.51-3.54,8.17-6.1,16.77-4.95,25.86,1.63,12.88,9.61,23.58,20.73,30.11l18.19,7.8c13.1,5.62,19.89,19.61,13.49,32.79-1.04,2.14-4.49,3.88-7.41,5.53,4.98,4.51,11.99,4.47,17.99,1.7,5.12-2.37,9.47-6.87,12.03-13.87,7.84,18.69,23.82,20.46,30.4,28.31,1.91,2.28,2.52,6.62,1.66,9.15s-3.7,4.59-7.2,6.65c6.89,5.06,14.9,2.4,21.18-1.99,9.31-6.52,10.72-16.59,5.33-27.97,10.61,8.93,23.95,8.02,31.6-2.09l.84-2.58c.17-.52-1.41-1.3-1.8-1.24-2.39,1.5-6.74,2.23-9.43.55-2.33-1.46-4.78-5.38-4.55-8.95.52-8.24,7.22-14.24,14.99-16.77,10.01-3.26,19.27-7.92,24.56-17.51,3.81-6.91,3.54-15.65.68-22.98-5.03-12.87-2.52-25.53,6.14-36.17,6.49-7.97,11.45-16.72,13.88-26.39,10.03,5.62,18.35,13.03,23.56,22.93l18.25,34.69,27.89,55.16c2.56,5.06,6.22,10.92,10.02,14.79,10.18,8.3,22.08,12.75,34.45,16.71l40.64,8.61c10.35,11.78,8.98,36.89-1.9,48.52-23.89,5.18-48.11,5.2-71.9.24-21.78-4.55-39.48-15.65-53.63-33.17Z"/>
      <path class="cls-1" d="M636.91,846.59c4.67-4.67,5.54-10.45,2.14-15.76-2.93-4.56-7.7-7.82-12.62-10.19-11.32-5.44-18.49-15.18-20.85-27.43-1.18-6.12-4.41-11.69-8.21-16.57-5.51-7.06-9.28-14.48-12.12-22.81-1.54,15.36,13.61,24.77,16.66,38.12,1.49,6.53.09,12.95-4.32,17.82-3.6,3.97-9.69,6.61-16.11,5.61,11.2-9.64,7.34-26.98-1.31-37.61l-13.39-16.45c-10.53-12.94-12.46-28.89-5.42-43.92s7.12-30.16-.59-44.35l-9.59-17.66c.54,6.35,3.36,11.32,5.98,16.41,7.58,14.75,7.99,30.36.94,45.31-6.51,13.81-5.48,29.24,2.96,41.82l13.27,16.75-14.99-6.05c-10.48-4.23-19.05-11.95-23.56-22.32-8.89-20.41,7.68-35.16,6.67-52.88-1.5-26.31-31.49-41.52-10.87-80.91l11.65-22.25c9.06-17.31-.56-57.19,31.05-94.93,7.26-8.67,15.5-15.55,25.84-20.23,22.23-10.06,47.57-8.2,68.56,4.28,24.36,14.48,40.07,38.92,44.03,66.95l2.85,29.37c3.07,31.63,19.06,41.67,27.76,61.92,10.02,23.34-4.68,43.84-5.52,43.24l-3.44-2.43c.66-9.33,2.07-19.95-4.45-28.27,4.62,20.3,1.1,38.19-11.13,53.62-11.22,14.15-14.22,25.52-8.28,42.77,2.89,8.39,2.32,16.52-3.48,23.56-4.15,5.04-10.44,7.45-16.29,10.53l-15.12,7.95,14.08-15.87-1.24-1.14-9.83,10.03c-5.57,5.69-9.37,13.22-8.89,21.33.43,7.26,5.82,12.05,12.65,12.48-5.25,4.3-11.26,4.27-17.19,2.13-4.35-1.57-9.31-5.63-10.24-11.72-2.4-15.85,18.14-21.31,28.84-37.08,6.16-9.08,7.84-21.16,3.37-31.16,2.03,17.83-4.63,32.8-19.05,42.6-16.13,10.96-21.58,22.01-13.36,40,2.85,6.23,3.11,12.82-1.81,17.94,1.73-10.45-3.18-20.64-13.09-24.3,7.15,6.65,12.38,14.38,9.76,23.82-1.52,5.45-7.49,8.41-12.68,7.92ZM660.61,734.09c.55-15.75,4.33-29.5,13.54-41.96l16.14-21.84c16.49-22.32,20.18-57.77,9.95-83.94l2.71,30.64c.06,21.23-7.44,40.24-19.68,57.29l-15.82,22.04c-6.61,11.51-10.81,24.71-6.84,37.77Z"/>
      <path class="cls-1" d="M438.35,741.42c-10.41,7.18-12.76,6.31-23.74,1.32l-1.43,2.81c-.31.61-2.32-.5-2.93-.88-22.86-6.26-40.26-21.87-49.19-43.74-1.28.28-2.85.88-3.19.36l-1.61-2.44c-5.05-7.64-6.47-15.09-7.03-24.46l-3.07,6.99c-4.31-17.09-.94-34.54,14.61-47.01l-11.31-1.53c4.43-5.56,11.01-8.86,18.66-7.68-1.91-7.4-1.12-14.29,3.28-20.51.9,4.45,1.85,8.32,4.59,12.47,11.11-20.05,29.2-27.47,50.58-29.9-2.81,3.63-4.22,4.89-6.04,8.52,12.81-3.31,23.71-3.5,35.91-.08,7.49,2.1,14.54,3.15,22.79,3.84-2.14,2.26-5.96,5.38-8.41,7-.22.26-.74,1.5-.39,1.62l2.64.9c13.96,4.75,23.95,16.91,28.3,30.9l-10.05-3.24c6.24,11.25,9.32,21.71,6.61,32.86-1.68-2.95-2.83-4.77-4.06-5.66l-2.49,21.16-3.1,2.37c-3.72,15.73-11.19,29.75-22.43,41.38-7.58,6.74-15.4,11.37-25,15.66l-2.48-3.03Z"/>
      <path class="cls-1" d="M749.16,927.63c3.17-8.01,9.83-13.21,16.47-17.93l8.06,4.21c-5.81,6.83-11.95,13.23-12.67,22.94,5-7.87,8.91-15.17,15.34-22.06,33.14,10.73,73.39,11,106.2.07,7.38,9.26,12.63,18.47,18.31,28.62-1.19-12.07-8.96-21.79-16.5-29.07l11.74-5.71c23.14,13.41,47.91,44.69,34.49,68.95-11.44,20.69-38.01,28.13-61.24,30.7-21.95,2.43-43.63,2.41-65.57-.05-20.13-2.26-42.43-8.11-55.64-24.04,7.63-17.79,7.61-37.58,1-56.63ZM802.49,923.19c-.07-.5-.57-1.68-.82-1.4-4.22,4.84-8.33,21.43-6.9,29.11l7.72-27.71Z"/>
      <path class="cls-1" d="M874.15,738.46c4.91-3.08,8.08-7.38,11.78-11.68l-4.05,18.11c-1.72,7.69-3.6,14.84-3.97,22.71-25.31,21.65-63.08,19.86-87.18-2.37l-27.6-56.2c-1.21-11.25,1.12-21.58,5.1-31.59,6.76-17,19.96-28.5,36.48-35.16,17.77-7.16,35.05-9.95,53.87-3.74,22.1,7.29,39.76,24.96,44.6,47.89-5.39,3.78-8.74,8.79-12.15,13.53-3.08.36-6.99,1.91-9.49,4.06-9.28-2.61-21.84-4.85-26.45,1.62-4.52,6.34,1.23,19.95,6.04,29.16,2.43,4.65,8.06,6.78,13.04,3.65Z"/>
      <path class="cls-1" d="M397.42,973.49c-15.91-.68-43.6-10.5-49.53-25.45-1.68-4.25.99-10.01,1.45-14.39,1.72-16.2,5.01-31.11,9.52-46.68l2.33-13.92c4.61.52,4.61,7.81,12.9,9,27.99,3.99,58.56,3.76,84.45-7.55,12.91-5.64,22.42-14.58,32.76-25.11l2.67,33.6,1.22,41.65c5.17-9.09,1.5-18.29,3.61-28.35,5.55,9.75,7.92,21.26,9.08,32.41-2.42,7.41-3.56,14.37-4.13,22.22-13.42,16.43-43.16,25.26-63.79,24.38l-42.55-1.82Z"/>
      <path class="cls-1" d="M749.38,968.43c-7.22,42.27-55.52,52.33-94.39,52.29l-49.98-.05c-25.84-.03-54.57-3.34-75.27-18.33-21.89-15.86-26.54-42.22-19.59-68.89,16.02,28.87,49.44,41.14,81.3,45.05,22.99,2.82,45.53,2.77,68.64.7,34.2-3.07,70.17-14.97,87.5-45.5,2.91,11.88,3.77,23.2,1.8,34.74Z"/>
      <path class="cls-1" d="M906.08,804.42c-.52-5.84-4.27-9.88-8.68-12.86-17.18-11.58-18.45-26.99-12.25-46.53,2.63-8.31,3.7-16.11,3.84-25.83,8.82,8.92,8.83,21.4,6.54,32.94-2.49,12.56,1.93,23.97,11.72,31.62,4.15,3.24,6.23,8.02,8.66,12.76,1.29-6.3-2.92-11.52-7.22-15.22-7.77-6.68-11.52-15.75-10.34-26.32,1.66-14.94,3.31-25.04-7.33-37.94,12.88-11.84,36.36-8.11,50.13,2.69,14.78,11.59,18.14,31,8.53,47.15-3.34,5.61-6.51,11.65-7.86,17.47,5.96.96,6.46,9.61,18.67,5.97-1.8,7.29-7.19,11.59-13.85,12.2-5.19.48-8.15-2.85-13.02-6.23l5.62,14.67,3.06,5.51c-4.32,2.58-9.1,2.49-13.8.69s-6.99-5.61-9.28-11.45c-2.01,5.01-3.74,8.87-6.56,10.58-4.45,2.7-9.2,2.93-12.91.33,4.59-2.81,6.83-6.61,6.34-12.18Z"/>
      <path class="cls-1" d="M447.51,978.37c19.77-1.09,42.65-8.44,56.08-22.37l3.13,21.85c-11.35,20.15-37.98,27.22-60.72,27.11l-34.01-.16c-28.09-.13-60.44-3.76-72.58-31.31-9.24-20.97-6.28-46.26,9.49-64.3l-2.68,23.29c-1.21,10.56-7.43,17.53,10.09,30.16,10.55,7.6,22.47,11.63,35.54,13.49,18.45,2.61,37.01,3.27,55.65,2.24Z"/>
      <path class="cls-1" d="M367.81,811.11c-3.01,6.59-3.38,12.25-4.52,19.71l-11.65-.79-6.03-9.52c8.42-20.34,19.87-44.47,40.99-53.01l13.41-5.42c18.78,5.17,37.83,4.69,56.07-2.33l7.7,2.12-20.45,32.57c-2.58,4.11-6.74,9.3-10.76,11.61-13.63,7.84-27.64,12.64-42.75,15.68l-22.67,4.55c.71-5.26,2.16-9.27.67-15.18Z"/>
      <path class="cls-1" d="M894.75,905.66c-26.35,14.73-63.53,15.9-93.17,11.87-12.3-1.67-23.51-4.94-34.61-10.49l1.65-42.14c12.05,11.63,25.15,18.05,40.57,22.08,24.4,6.21,49.49,6.17,74.39,1.73,3.91-.7,6.41-3.17,9.39-6l1.77,22.95Z"/>
      <path class="cls-1" d="M905.67,827.12l-6.44,8.04c-2.82,3.51-5.81,1.19-8.63-.92-6.22-4.64-37.09-4.02-68.73-21.27-8.11-4.42-11.3-10.49-15.21-18.72,17.17,8.9,37.3,10.56,54.4,1.83,3.32-1.7,5.02-2.3,8.63-1,11.09,4.02,21.54,9.06,28.39,18.79l-4.96,1.09c1.14,3.95,5.35,5.37,8.46,6.5,1.4.89,3.5,4.31,4.08,5.65Z"/>
      <path class="cls-1" d="M362.01,870.26l-20.18-4.83c-8.58-2.05-16.86-3.26-22.99-10.46-2.1-2.46-2.02-6.21-2.67-9.21l-1.12-5.12c-.24-1.08,1.65-2.52,2.56-3.48-1.24-3.56-1.37-7.26-.19-10.4l3.64,1.93c-.31-4.1-.74-6.39.03-8.97.56-1.86,4.44-3.58,6.55-3.62,1.08,4.88,2.72,8.52,7.91,9.51l-3.16-6.06c-4.29-8.21,11.97-1.78,15.9,13.28l13.25,1.39c-4.66,11.59-4.54,22.87.46,36.02Z"/>
      <path class="cls-1" d="M928.31,847.29c2.05,3.16,2.56,6.34.26,9.55.25,14.26-14.07,14.93-22.04,17.16l-11.45,3.21c4.36-12.42,5.13-25.09-.22-37.26,4.29.22,6.67-1.28,8.5-4.56,2.9-5.21,7.64-10.38,14.17-8.87l-4.71,8.32c5.05-.32,6.17-3.49,7.53-8.28,1.56.47,4.14,1.69,4.97,2.93.99,1.46,1.03,5.47.64,7.14l-.59,2.49c-.14.58,2.35.03,3.06-.03,1.36,1.47,1.32,5.22-.11,8.21Z"/>
      <path class="cls-1" d="M529.29,847.95c-9.89,7.69-20.75,11.94-33.74,14.02l-1.36-15.63c9.7-11.25,17.64-22.13,25.72-34.67l8.94,19.58.44,16.7Z"/>
      <path class="cls-1" d="M764.48,872.25c-14.35-1.84-25.72-7.6-35.9-16.92-.51-4.09-.46-8.31.28-12.19l9.3-18.01c8.29,13.66,16.65,25.85,27.56,37.19l-1.24,9.93Z"/>
      <path class="cls-1" d="M898.29,906.3l-2.33-25.7,10.21-2.97,13.24-3.21c4.46,16.77,6.36,32.42-10.12,39.12l-11.01-7.23Z"/>
      <path class="cls-1" d="M354.77,888.36l-4.71,19.06c-9.14.35-16.18-6.83-17.98-15.76-1.63-8.06.06-16.38,1.94-24.34l7.7.83,16.43,4.91-3.37,15.3Z"/>
      <path class="cls-1" d="M516.94,894.02c-13.42-1.13-18.14-15.49-21.23-28.8,10.33-1.58,18.52-4.42,27.83-9.42l3.74,10.24c-2.69,9.96-6.11,18.59-10.35,27.98Z"/>
      <path class="cls-1" d="M764.54,875.55c-2.95,12.99-10.03,25.38-22.82,23.64l-8.55-20.42c-2.15-5.14-2.3-10.05.62-14.95,9.49,7.13,19.32,10.26,30.75,11.73Z"/>
      <path class="cls-1" d="M884.96,719.17c-3.36,11.25-16.19,22.99-20.7,14.43-6.12-11.64-12.67-26.81-2.01-28.42,5.94-.9,13.53-.37,18.23,3.08l4.48,10.92Z"/>
      <path class="cls-1" d="M451.97,756.81c-1.59-3.64-2.33-8.9-1.65-13.52,11.67-5.49,20.7-13.7,27.8-24.13,3.71-.4,6.78-1.28,10.59-3.06l-23.65,42.84c-4.48-1.56-7.26-2.09-13.1-2.13Z"/>
      <path class="cls-1" d="M901,812.17c-9.24-12.31-24.75-21.09-40.78-21.67-1.93-.94-2.96-5.99-1.73-7.85,7.49-2.94,14.19-6.46,20.36-11.65,1.99,10.53,8.8,17.97,17.25,23.82,5.65,3.92,9.38,10.54,4.9,17.35Z"/>
      <path class="cls-1" d="M408.8,747.32c3.06,2.23,6.81,1.99,9.28-.35,5.44,4.75,12.24,3.11,17.43-.38,3.39,1.2,7.85,1.09,11.4-1.84-.04,5.35.62,9.89,3,14.09-14.07,4.07-29.38,4.77-43.26,1.68l2.15-13.21Z"/>
      <path class="cls-1" d="M859.23,793.92c-14.94,6.01-31.84,5.98-45.58.1,2.48-3.64,3-6.34,3.28-10.55,12.67,3.78,25.4,3.91,37.74.33-.2,4.58,1.12,7.84,4.56,10.12Z"/>
      <path class="cls-1" d="M920.91,706.66c-8.29-.29-15.36.08-22.61,2.13l-3.89-7.33c2.64-5.63,7.75-11.15,13.64-14.28,3.56-1.89,7.4-.68,8.89,3.07,1.95,4.89,3.13,10.02,3.97,16.41Z"/>
      <path class="cls-1" d="M763.85,906.7c-5.71,3.76-10.6,8.25-14.61,13.48l-6.15-18.25c13.06,1.42,15.11-10.83,20.31-2.63l.45,7.4Z"/>
      <polygon class="cls-1" points="812.65 790.72 804.1 790.85 794.95 773.33 813.61 782.69 812.65 790.72"/>
      <polygon class="cls-1" points="515.52 897.3 509.34 915.61 500.76 891.92 515.52 897.3"/>
      <path class="cls-1" d="M480.74,715.83l10.65-25.47c6.19,8.95.56,22.21-10.65,25.47Z"/>
      <path class="cls-1" d="M372.3,725.75c-8.99-.97-16.72-10.21-13.99-20.51l13.99,20.51Z"/>
      <path class="cls-1" d="M886.79,716.72l-2.79-8.96c-.81-2.6,4.05-4.72,6.25-4.59s5.81,5.25,4.07,6.81l-7.54,6.74Z"/>
      <polygon class="cls-1" points="736.24 821.25 728.96 835.31 730.53 812.25 736.24 821.25"/>
      <polygon class="cls-1" points="527.49 819.21 522.03 808.21 526.68 801.77 527.49 819.21"/>
      <path class="cls-1" d="M117.44,832.32c-3.06,6.57-4.75,11.88-10.76,14.54-2.91,1.29-7,.66-8.83-1.35-5.37-5.88,1.48-13.43,9.77-19.56-11.2-.42-20.52-4.5-18.52-12.23.82-3.17,4.05-5.25,8.09-5.13,7.44.22,14.41,8.29,14.38,6.26-.06-4.77-4.06-9.9-1.76-16.69,1.28-3.78,4.32-6.17,7.69-6.23,3.15-.05,6.62,2.56,7.38,6.34,1.13,5.59-.92,10.82-2.24,17.28,8.79-6.78,18.23-11.36,22.33-4.01,1.05,1.88.42,5.99-1.35,8.06-4.21,4.9-9.91,4.37-16.61,5.97,9.19,5.22,14.68,12.76,10.15,18.26-2.28,2.77-6.63,3.3-9.86,1.79-5.22-2.44-6.71-7.4-9.87-13.3ZM114.99,815.49c-4.68,1.63-6.57,6.28-4.82,10.63,1.3,3.24,5.68,5.44,9.47,4.1,4.13-1.45,6.3-5.15,5.17-9.5-.98-3.79-4.96-6.93-9.83-5.23Z"/>
      <path class="cls-1" d="M134.57,891.07c5.68-8.87,12.79-15.14,19.76-23.75-8.68,3.62-12.77,12.21-20.01,19.2,2.56-12.72,12.84-22.44,25.73-25.8-2.12,15.5-9.94,27.23-25.49,30.35Z"/>
      <path class="cls-1" d="M107.23,897.24l16.54,19.18c-9.76-.37-17.44-7.15-21.38-15.78l-4.35-13.07c12.07,2.77,21.03,11.5,24.66,22.83-6.03-4.15-7.44-10.74-15.46-13.17Z"/>
      <path class="cls-1" d="M1119.03,827.17c-2.76,5.82-3.51,11.2-8.61,14.26-2.23,1.33-6,1.5-7.9.64-2.91-1.32-4.19-4.69-3.55-8.02,1.17-6.06,5.82-8.59,10.81-12.73-5.85-.84-10.88-.71-14.86-2.97-3.23-1.84-4.67-5.65-4.01-8.74.62-2.87,4.34-5.85,8.26-5.46,4.97.51,9.03,3.77,14.34,6.59-1.8-6.85-3.76-12.07-1.77-17.93,1.12-3.31,4.64-5.57,7.64-5.4,3.18.17,6.35,2.83,6.95,6.52.88,5.48-1.09,10.56-2.03,16.77,5.63-3.63,9-7.28,14.72-7.76,2.47-.21,5.82,1.75,6.99,3.67,1.01,1.67.43,5.48-.94,7.34-3.95,5.35-9.61,5.29-16.8,6.22,4.18,3.5,8.06,5.92,10.71,9.75,2.09,3.02,1.01,7.35-1.21,9.34-2.38,2.14-6.44,2.4-9.59.5-4.33-2.61-5.95-6.81-9.12-12.59ZM1117.88,810.45c-4.91.52-7.19,5.06-6.48,8.84.76,4.06,4.42,6.4,8.07,5.95,4.52-.55,7.37-3.84,6.67-8.61-.49-3.38-3.54-6.69-8.26-6.19Z"/>
      <path class="cls-1" d="M1142.66,877.52l20.15-25.81c-8.95,5.29-12.87,13.73-19.96,21.26,2.69-13.03,12.45-24.35,26.35-29.23-1.81,16.48-10.88,31.08-26.54,33.78Z"/>
      <path class="cls-1" d="M1113.57,884.66l13.94,16.38c-14.54-.52-24.22-15.9-25.7-30.36,12.65,3.63,22.99,12.49,25.45,25.48l-9.71-10.84c-.55-.62-2.86-1.02-3.97-.67Z"/>
      <path class="cls-1" d="M1079.5,642.92l-52.48-.66c-10.26-.13-22.93-5.08-24.64-15.32-.81-4.86,1.34-10.02,5.11-13.48,7.81-7.18,18.88-8.51,29.19-3.18.98-7.37,4.23-13.35,10.08-16.21,6.98-3.41,13.71-2.09,20.97,2.15-.7-19.12,13.27-33.35,31.23-34.61,10.69-.75,20.2,3.21,26.72,11.14,6.44,7.82,8.67,18.22,5.37,29.18,9.25-2.28,18.13.38,23.27,7.72,3.55,5.07,4.46,11.17,2.32,17.21-1.63,4.6-6,9.3-11.76,11.12s-12.16,3.4-18.47,3.58l-46.91,1.36Z"/>
      <path class="cls-1" d="M288.74,435.58c-32.31,1.24-63.49,1.58-95.26.08-10.73-.51-23.06-3.31-25.73-12.12-1.37-4.54-.11-9.43,2.81-12.89,5.69-6.75,13.76-8.77,22.97-6.19-3.1-12.13-1.14-23.34,6.56-32.49,10.31-12.25,27.07-17.23,42.47-12.64,16.92,5.03,26.04,21.05,23.43,38.43,6.81-2.7,11.93-2.19,16.56,1.11,4.29,3.05,6.22,8.06,5.29,14.16,7.04-2.36,13.67-2.34,19.1,2.12,2.24,1.84,4.07,5.54,4.06,8.36-.05,7.95-11.51,11.67-22.26,12.08Z"/>
      <path class="cls-1" d="M630.18,404.95c-18.32-15.04-42.27-31.24-47.76-54.29-1.8-7.57.12-16.09,5.91-21.24,7.64-6.81,18.21-5.72,26.2.1,6.77,4.94,10.67,11.71,14.92,20.14,4.32-10.59,9.5-19.93,19.44-24.71,6.19-2.98,12.82-3.54,19.09.18,12.76,7.55,10.75,26.49,1.43,40.32-5.16,7.66-11.2,14.63-18.14,20.79l-21.08,18.71Z"/>
      <path class="cls-1" d="M988.47,320.41l-65.41.93c-5.65.08-11.9-2.21-14.69-6.55-2.05-3.2-.92-7.81,1.1-9.9,2.81-2.91,6.75-3.55,11.22-3.41-1.91-6.14-.62-11.35,3.76-14.51s10.04-2.39,15.97.82c-.48-9.12,2.86-15.93,9.45-21.11,8.01-6.29,19.71-5.92,27.85-.03,8.37,6.06,11.81,16.58,8.81,27.72,8.56-2.82,16.66-.94,21.12,5.91,3.91,6.01,1.96,13.62-4.7,16.89-3.94,1.93-9.11,3.17-14.48,3.24Z"/>
      <path d="M660.61,734.09c-3.97-13.06.22-26.26,6.84-37.77l15.82-22.04c12.24-17.04,19.74-36.06,19.68-57.29l-2.71-30.64c10.22,26.17,6.53,61.62-9.95,83.94l-16.14,21.84c-9.2,12.46-12.99,26.21-13.54,41.96Z"/>
      <path d="M802.49,923.19l-7.72,27.71c-1.43-7.68,2.68-24.27,6.9-29.11.25-.28.75.9.82,1.4Z"/>
      <path d="M114.99,815.49c4.87-1.7,8.85,1.44,9.83,5.23,1.12,4.35-1.05,8.05-5.17,9.5-3.79,1.33-8.17-.86-9.47-4.1-1.75-4.36.14-9,4.82-10.63ZM115.46,818.23c-3,1.19-3.48,5.28-2.03,7.59.98,1.56,4.1,2.34,6.04,1.24s3.03-4.15,2.33-6.36c-.59-1.87-4.25-3.29-6.33-2.46Z"/>
      <path d="M1117.88,810.45c4.73-.5,7.77,2.82,8.26,6.19.7,4.77-2.14,8.06-6.67,8.61-3.65.44-7.32-1.9-8.07-5.95-.71-3.79,1.57-8.33,6.48-8.84ZM1117.5,813.31c-2.64.96-3.93,4.15-3.23,5.99.94,2.48,3.92,3.65,6.11,2.76,2.03-.82,3.48-4.25,2.69-6.26-.59-1.5-3.87-3.12-5.57-2.5Z"/>
      <path class="cls-1" d="M115.46,818.23c2.08-.83,5.74.59,6.33,2.46.7,2.21-.39,5.25-2.33,6.36s-5.06.33-6.04-1.24c-1.44-2.31-.96-6.4,2.03-7.59Z"/>
      <path class="cls-1" d="M1117.5,813.31c1.71-.62,4.99,1,5.57,2.5.79,2.01-.66,5.44-2.69,6.26-2.18.88-5.16-.29-6.11-2.76-.7-1.84.59-5.03,3.23-5.99Z"/>
    </g>
  </g>
</svg>