<svg width="55" height="55" viewBox="0 0 55 55" fill="none" xmlns="http://www.w3.org/2000/svg">
<path d="M27.4424 54.8984C42.5984 54.8984 54.8848 42.609 54.8848 27.4492C54.8848 12.2894 42.5984 0 27.4424 0C12.2864 0 0 12.2894 0 27.4492C0 42.609 12.2864 54.8984 27.4424 54.8984Z" fill="white"/>
<path d="M27.4424 13.7246C23.7173 13.7246 23.251 13.7407 21.7878 13.805C20.3245 13.8747 19.333 14.1053 18.4593 14.443C17.5589 14.7915 16.7924 15.2633 16.0259 16.0246C15.2595 16.7858 14.7932 17.5525 14.4448 18.4585C14.1071 19.3324 13.8766 20.3296 13.807 21.7878C13.7373 23.2514 13.7266 23.7178 13.7266 27.4439C13.7266 31.1699 13.7426 31.6363 13.807 33.0999C13.8766 34.5581 14.1071 35.5553 14.4448 36.4292C14.7932 37.3299 15.2648 38.0965 16.0259 38.8632C16.787 39.6244 17.5535 40.0962 18.4593 40.4447C19.333 40.7825 20.3299 41.013 21.7878 41.0827C23.251 41.1524 23.7173 41.1631 27.4424 41.1631C31.1675 41.1631 31.6338 41.147 33.097 41.0827C34.5549 41.013 35.5518 40.7825 36.4255 40.4447C37.326 40.0962 38.0924 39.6244 38.8589 38.8632C39.62 38.1019 40.0916 37.3352 40.44 36.4292C40.7777 35.5553 41.0082 34.5581 41.0778 33.0999C41.1475 31.6363 41.1582 31.1699 41.1582 27.4439C41.1582 23.7178 41.1422 23.2514 41.0778 21.7878C41.0082 20.3296 40.7777 19.3324 40.44 18.4585C40.0916 17.5578 39.62 16.7912 38.8589 16.0246C38.0978 15.2633 37.3313 14.7915 36.4255 14.443C35.5518 14.1053 34.5549 13.8747 33.097 13.805C31.6338 13.7407 31.1675 13.7246 27.4424 13.7246ZM27.4424 16.1961C31.1032 16.1961 31.5427 16.2122 32.9898 16.2765C34.3298 16.3409 35.0534 16.5607 35.5358 16.7537C36.1789 17.0003 36.6345 17.3005 37.1169 17.7777C37.5939 18.2602 37.8941 18.7159 38.1407 19.3592C38.3282 19.8417 38.5534 20.5655 38.6123 21.9058C38.6766 23.3533 38.6927 23.7875 38.6927 27.4546C38.6927 31.1216 38.6766 31.5559 38.607 33.0034C38.5373 34.3437 38.3122 35.0674 38.1246 35.55C37.8673 36.1933 37.5779 36.649 37.0955 37.1315C36.6185 37.6086 36.1522 37.9089 35.5197 38.1555C35.0373 38.3431 34.303 38.5683 32.963 38.6273C31.5052 38.6916 31.0764 38.7077 27.4049 38.7077C23.7334 38.7077 23.3046 38.6916 21.8467 38.6219C20.5068 38.5522 19.7725 38.327 19.2901 38.1394C18.6415 37.8821 18.1913 37.5926 17.7143 37.1101C17.2319 36.6329 16.9264 36.1665 16.6852 35.5339C16.4976 35.0514 16.2725 34.3169 16.2028 32.9766C16.1492 31.5344 16.1331 31.0895 16.1331 27.4385C16.1331 23.7822 16.1492 23.3372 16.2028 21.879C16.2725 20.5387 16.4922 19.8042 16.6852 19.3217C16.9264 18.6676 17.2319 18.2226 17.7143 17.7401C18.1913 17.263 18.6415 16.952 19.2901 16.7108C19.7725 16.5231 20.4907 16.298 21.8306 16.2283C23.2885 16.1747 23.7173 16.1586 27.3888 16.1586L27.4424 16.1961ZM27.4424 20.3993C23.5512 20.3993 20.3942 23.557 20.3942 27.4492C20.3942 31.3414 23.5512 34.4992 27.4424 34.4992C31.3337 34.4992 34.4906 31.3414 34.4906 27.4492C34.4906 23.557 31.3337 20.3993 27.4424 20.3993ZM27.4424 32.0223C24.9179 32.0223 22.8705 29.9743 22.8705 27.4492C22.8705 24.9241 24.9179 22.8761 27.4424 22.8761C29.9669 22.8761 32.0143 24.9241 32.0143 27.4492C32.0143 29.9743 29.9669 32.0223 27.4424 32.0223ZM36.4148 20.1259C36.4148 21.0373 35.6751 21.7717 34.7693 21.7717C33.8581 21.7717 33.1238 21.0319 33.1238 20.1259C33.1238 19.2198 33.8635 18.48 34.7693 18.48C35.6751 18.4746 36.4148 19.2145 36.4148 20.1259Z" fill="#169D52"/>
</svg>
