<svg width="23" height="23" viewBox="0 0 23 23" fill="none" xmlns="http://www.w3.org/2000/svg">
<path d="M11.5 0C8.37671 0 7.98574 0.0134818 6.75889 0.0674092C5.53204 0.12583 4.70066 0.31907 3.96815 0.602188C3.21317 0.894294 2.57053 1.28976 1.9279 1.9279C1.28527 2.56604 0.894294 3.20867 0.602188 3.96815C0.31907 4.70066 0.12583 5.53654 0.0674091 6.75889C0.00898789 7.98574 0 8.37671 0 11.5C0 14.6233 0.0134818 15.0143 0.0674091 16.2411C0.12583 17.4635 0.31907 18.2993 0.602188 19.0318C0.894294 19.7868 1.28976 20.4295 1.9279 21.0721C2.56604 21.7102 3.20867 22.1057 3.96815 22.3978C4.70066 22.6809 5.53654 22.8742 6.75889 22.9326C7.98574 22.991 8.37671 23 11.5 23C14.6233 23 15.0143 22.9865 16.2411 22.9326C17.4635 22.8742 18.2993 22.6809 19.0318 22.3978C19.7868 22.1057 20.4295 21.7102 21.0721 21.0721C21.7102 20.434 22.1057 19.7913 22.3978 19.0318C22.6809 18.2993 22.8742 17.4635 22.9326 16.2411C22.991 15.0143 23 14.6233 23 11.5C23 8.37671 22.9865 7.98574 22.9326 6.75889C22.8742 5.53654 22.6809 4.70066 22.3978 3.96815C22.1057 3.21317 21.7102 2.57054 21.0721 1.9279C20.434 1.28976 19.7913 0.894294 19.0318 0.602188C18.2993 0.31907 17.4635 0.12583 16.2411 0.0674092C15.0143 0.0134818 14.6233 0 11.5 0ZM11.5 2.07171C14.5694 2.07171 14.9379 2.08519 16.1512 2.13912C17.2747 2.19304 17.8814 2.3773 18.2859 2.53908C18.8251 2.7458 19.2071 2.99746 19.6116 3.39742C20.0115 3.80188 20.2632 4.18386 20.4699 4.72313C20.6272 5.12759 20.8159 5.73427 20.8654 6.85776C20.9193 8.07112 20.9328 8.43513 20.9328 11.509C20.9328 14.5828 20.9193 14.9469 20.8609 16.1602C20.8025 17.2837 20.6137 17.8904 20.4564 18.2948C20.2407 18.8341 19.998 19.2161 19.5936 19.6206C19.1936 20.0205 18.8027 20.2722 18.2724 20.4789C17.8679 20.6362 17.2522 20.8249 16.1288 20.8744C14.9064 20.9283 14.5469 20.9418 11.4685 20.9418C8.39019 20.9418 8.03068 20.9283 6.80832 20.8699C5.68484 20.8115 5.06917 20.6227 4.66471 20.4654C4.12094 20.2497 3.74345 20.007 3.34349 19.6026C2.93904 19.2026 2.68288 18.8116 2.48066 18.2814C2.32337 17.8769 2.13462 17.2612 2.0762 16.1377C2.03126 14.9289 2.01778 14.5559 2.01778 11.4955C2.01778 8.43064 2.03126 8.05764 2.0762 6.83529C2.13462 5.7118 2.31887 5.09613 2.48066 4.69168C2.68288 4.14342 2.93904 3.77042 3.34349 3.36596C3.74345 2.966 4.12094 2.70535 4.66471 2.50313C5.06917 2.34584 5.67136 2.15709 6.79484 2.09867C8.01719 2.05373 8.37671 2.04025 11.4551 2.04025L11.5 2.07171ZM11.5 5.59496C8.2374 5.59496 5.59046 8.24189 5.59046 11.5045C5.59046 14.7671 8.2374 17.414 11.5 17.414C14.7626 17.414 17.4095 14.7671 17.4095 11.5045C17.4095 8.24189 14.7626 5.59496 11.5 5.59496ZM11.5 15.3378C9.38335 15.3378 7.66667 13.6211 7.66667 11.5045C7.66667 9.38785 9.38335 7.67116 11.5 7.67116C13.6166 7.67116 15.3333 9.38785 15.3333 11.5045C15.3333 13.6211 13.6166 15.3378 11.5 15.3378ZM19.0229 5.36577C19.0229 6.12974 18.4027 6.74541 17.6432 6.74541C16.8792 6.74541 16.2636 6.12524 16.2636 5.36577C16.2636 4.60629 16.8837 3.98613 17.6432 3.98613C18.4027 3.98163 19.0229 4.6018 19.0229 5.36577Z" fill="black"/>
</svg>
