<svg width="55" height="55" viewBox="0 0 55 55" fill="none" xmlns="http://www.w3.org/2000/svg">
<path d="M27.4424 54.8984C42.5984 54.8984 54.8848 42.609 54.8848 27.4492C54.8848 12.2894 42.5984 0 27.4424 0C12.2864 0 0 12.2894 0 27.4492C0 42.609 12.2864 54.8984 27.4424 54.8984Z" fill="white"/>
<path d="M37.1496 37.1637H33.0761V30.7839C33.0761 29.2613 33.0439 27.3045 30.9536 27.3045C28.8311 27.3045 28.5041 28.9611 28.5041 30.6713V37.1637H24.4306V24.0395H28.3433V25.8301H28.3969C28.9436 24.8008 30.2729 23.7125 32.256 23.7125C36.3831 23.7125 37.1442 26.4306 37.1442 29.9636L37.1496 37.1637ZM19.8373 22.2435C18.5241 22.2435 17.4736 21.182 17.4736 19.8792C17.4736 18.5765 18.5295 17.515 19.8373 17.515C21.1451 17.515 22.201 18.5765 22.201 19.8792C22.201 21.182 21.1397 22.2435 19.8373 22.2435ZM21.8794 37.1637H17.7952V24.0395H21.8794V37.1637ZM39.1863 13.7246H15.7531C14.6329 13.7246 13.7217 14.6092 13.7217 15.7082V39.2438C13.7217 40.3375 14.6275 41.2274 15.7531 41.2274H39.1809C40.3011 41.2274 41.2177 40.3428 41.2177 39.2438V15.7082C41.2177 14.6092 40.3011 13.7246 39.1863 13.7246Z" fill="#169D52"/>
</svg>

