<svg width="23" height="23" viewBox="0 0 23 23" fill="none" xmlns="http://www.w3.org/2000/svg">
<path d="M19.5971 19.6016H16.1897V14.2663C16.1897 12.993 16.1628 11.3565 14.4142 11.3565C12.6388 11.3565 12.3653 12.7419 12.3653 14.1721V19.6016H8.95789V8.62612H12.2308V10.1236H12.2756C12.7329 9.26277 13.8448 8.35263 15.5037 8.35263C18.9559 8.35263 19.5926 10.6257 19.5926 13.5803L19.5971 19.6016ZM5.11559 7.12417C4.01715 7.12417 3.1384 6.23645 3.1384 5.14698C3.1384 4.0575 4.02164 3.16979 5.11559 3.16979C6.20955 3.16979 7.09279 4.0575 7.09279 5.14698C7.09279 6.23645 6.20507 7.12417 5.11559 7.12417ZM6.82378 19.6016H3.40741V8.62612H6.82378V19.6016ZM21.3008 0H1.69922C0.762183 0 0 0.739766 0 1.65887V21.3411C0 22.2558 0.7577 23 1.69922 23H21.2963C22.2333 23 23 22.2602 23 21.3411V1.65887C23 0.739766 22.2333 0 21.3008 0Z" fill="black"/>
</svg>
