<svg width="304" height="44" viewBox="0 0 304 44" fill="none" xmlns="http://www.w3.org/2000/svg">
<path d="M16.992 26.6001L13.1013 28.6817V42.6303C13.1013 43.2437 12.5639 43.741 11.9029 43.741C11.2411 43.741 10.7045 43.2434 10.7045 42.6303V28.6817L0.603848 23.2766C0.220621 23.0721 0.00508147 22.7004 0.00508147 22.3178L0 10.8614C0 10.4132 0.28668 10.0274 0.698703 9.85196L11.3033 4.17481C11.6874 3.96876 12.1434 3.9825 12.5025 4.17481L16.9255 6.54222L29.0165 0.144485C29.3989 -0.0568544 29.8507 -0.0407629 30.206 0.149195L44.667 7.88959C45.0502 8.09407 45.2658 8.46613 45.2658 8.8484L45.2708 24.3312C45.2708 24.779 44.9842 25.1648 44.5721 25.3406L30.2055 33.0308C29.8215 33.2368 29.3654 33.2231 29.0063 33.0308L16.992 26.6004V26.6001ZM48.7669 22.4528C48.227 22.1031 48.0949 21.4127 48.4722 20.9123C48.8495 20.4119 49.5939 20.2891 50.1342 20.6387L59.6065 26.7865C60.1464 27.1366 60.279 27.8265 59.9017 28.3273C59.5239 28.8277 58.7795 28.9506 58.2392 28.6009L48.7669 22.4528ZM50.1342 12.5392C49.5939 12.8889 48.8495 12.7661 48.4722 12.2657C48.0949 11.7653 48.227 11.0749 48.7669 10.7252L58.2392 4.57749C58.7795 4.2274 59.5239 4.35025 59.9017 4.85065C60.279 5.35145 60.1464 6.04142 59.6065 6.39151L50.1342 12.5392ZM49.4504 17.7003C48.7889 17.7003 48.252 17.2026 48.252 16.5896C48.252 15.9761 48.7893 15.4789 49.4504 15.4789H61.0141C61.6759 15.4789 62.2125 15.9765 62.2125 16.5896C62.2125 17.203 61.6755 17.7003 61.0141 17.7003H49.4504ZM19.3215 7.82483L25.0826 10.9081C25.6534 11.2123 25.8503 11.8889 25.5221 12.4184C25.1939 12.9474 24.4639 13.1299 23.8931 12.8261L11.9025 6.41349L2.39634 11.4968V21.6819L11.9046 26.7672L14.605 25.3225L9.02893 22.3378C8.45769 22.0336 8.26078 21.357 8.58896 20.8279C8.91714 20.2985 9.64718 20.116 10.218 20.4201L29.6055 30.7917L42.8732 23.695V9.48421L29.6017 2.38473L19.3215 7.82483Z" fill="white"/>
<path d="M87.6213 14.3611C88.2692 14.3611 88.868 14.44 89.4134 14.5958C89.9639 14.7536 90.4555 14.9726 90.884 15.2548C91.3177 15.5327 91.6873 15.8643 91.9939 16.2477C92.306 16.6335 92.5397 17.0574 92.6956 17.5201C92.8561 17.9786 92.9391 18.4633 92.9391 18.9735C92.9391 19.4927 92.8561 19.9821 92.6956 20.4449C92.5397 20.9029 92.306 21.3248 91.9939 21.7082C91.6873 22.0878 91.3172 22.4167 90.884 22.6922C90.4555 22.963 89.9639 23.1753 89.4134 23.3241C88.868 23.4756 88.2692 23.5497 87.6213 23.5497H79.928V29.3807H77.6201V14.3615H87.6213V14.3611ZM87.2804 21.8621C87.8114 21.8621 88.2857 21.7942 88.7024 21.6541C89.1237 21.5163 89.4765 21.3181 89.7636 21.0583C90.0562 20.8008 90.2751 20.4939 90.4263 20.1376C90.5749 19.7769 90.6503 19.3844 90.6503 18.9554C90.6503 18.5402 90.5749 18.1567 90.4263 17.8C90.2751 17.4456 90.0562 17.1367 89.7636 16.8706C89.4765 16.6065 89.1233 16.4012 88.7024 16.2568C88.2857 16.1119 87.8114 16.0397 87.2804 16.0397H79.928V21.8621H87.2804Z" fill="white"/>
<path d="M98.585 29.3804V14.3611H108.498C109.224 14.3611 109.876 14.431 110.456 14.5688C111.041 14.7085 111.542 14.9028 111.965 15.1555C112.394 15.4083 112.747 15.7062 113.027 16.0488C113.305 16.3875 113.514 16.7596 113.651 17.1681C113.792 17.572 113.865 17.9962 113.865 18.4409C113.865 19.0548 113.753 19.605 113.533 20.0929C113.319 20.5803 113.01 20.9952 112.609 21.3382C112.211 21.6812 111.735 21.95 111.177 22.1412C110.624 22.3355 110.013 22.4438 109.346 22.4665C109.677 22.6538 109.955 22.8818 110.183 23.1526C110.41 23.4234 110.602 23.726 110.758 24.0549C110.914 24.3869 111.046 24.739 111.157 25.111C111.267 25.4792 111.372 25.8556 111.469 26.2394C111.567 26.6185 111.669 26.9973 111.781 27.3764C111.898 27.7512 112.036 28.1076 112.199 28.4502C112.36 28.7889 112.563 29.0982 112.804 29.38H110.35C110.148 29.152 109.982 28.8992 109.853 28.6221C109.721 28.3399 109.609 28.042 109.512 27.7285C109.42 27.4105 109.337 27.0875 109.259 26.763C109.181 26.4333 109.103 26.1083 109.025 25.7881C108.947 25.4631 108.855 25.1538 108.752 24.8587C108.648 24.5584 108.521 24.2806 108.372 24.0286C108.221 23.7754 108.041 23.5568 107.827 23.3692C107.612 23.1844 107.352 23.0396 107.048 22.9359C106.748 22.8276 106.39 22.7735 105.977 22.7735H100.893V29.3804H98.5854H98.585ZM100.892 21.1306H108.167C108.966 21.1306 109.621 21.0289 110.135 20.8236C110.646 20.6137 111.026 20.3181 111.274 19.9394C111.52 19.5599 111.644 19.1156 111.644 18.6034C111.644 18.0932 111.52 17.6466 111.274 17.2674C111.026 16.8836 110.646 16.5857 110.135 16.3741C109.621 16.1642 108.966 16.0578 108.167 16.0578H100.892V21.1306Z" fill="white"/>
<path d="M127.531 29.579C126.667 29.579 125.842 29.5024 125.058 29.3533C124.279 29.1975 123.548 28.9694 122.867 28.6672C122.19 28.367 121.581 27.9965 121.036 27.5569C120.49 27.1189 120.023 26.6138 119.633 26.0404C119.244 25.4693 118.942 24.8355 118.728 24.1357C118.518 23.4383 118.416 22.6804 118.416 21.8617C118.416 21.0493 118.518 20.2953 118.728 19.596C118.942 18.8985 119.244 18.2647 119.633 17.6913C120.023 17.1202 120.49 16.6175 121.036 16.1838C121.581 15.7462 122.19 15.3765 122.867 15.0739C123.548 14.7736 124.279 14.5479 125.058 14.3968C125.842 14.241 126.667 14.1621 127.531 14.1621C128.393 14.1621 129.219 14.241 130.005 14.3968C130.796 14.5479 131.534 14.7736 132.216 15.0739C132.903 15.3765 133.523 15.7466 134.076 16.1838C134.634 16.6175 135.108 17.1202 135.498 17.6913C135.892 18.2647 136.199 18.8985 136.413 19.596C136.628 20.2957 136.735 21.0493 136.735 21.8617C136.735 22.6804 136.628 23.4387 136.413 24.1357C136.199 24.8355 135.892 25.4693 135.498 26.0404C135.108 26.6138 134.634 27.1189 134.076 27.5569C133.523 27.9969 132.903 28.367 132.216 28.6672C131.534 28.9694 130.797 29.1975 130.005 29.3533C129.219 29.5024 128.393 29.579 127.531 29.579ZM127.531 27.8097C128.315 27.8097 129.06 27.7284 129.762 27.5659C130.468 27.4035 131.11 27.1644 131.69 26.8442C132.267 26.5259 132.766 26.1291 133.19 25.6526C133.611 25.1719 133.935 24.6149 134.164 23.9827C134.39 23.3508 134.505 22.6447 134.505 21.8621C134.505 21.0858 134.39 20.386 134.164 19.7588C133.935 19.1269 133.611 18.5767 133.19 18.1069C132.766 17.6332 132.267 17.2364 131.69 16.9157C131.11 16.5974 130.468 16.3557 129.762 16.1936C129.06 16.0311 128.316 15.9499 127.531 15.9499C126.745 15.9499 126.005 16.0311 125.311 16.1936C124.622 16.3561 123.991 16.5978 123.422 16.9157C122.849 17.2364 122.355 17.6332 121.941 18.1069C121.532 18.5767 121.213 19.1269 120.987 19.7588C120.765 20.3864 120.656 21.0858 120.656 21.8621C120.656 22.6447 120.765 23.3512 120.987 23.9827C121.213 24.6149 121.533 25.1719 121.941 25.6526C122.355 26.1291 122.849 26.5259 123.422 26.8442C123.991 27.1648 124.622 27.4039 125.311 27.5659C126.005 27.7284 126.745 27.8097 127.531 27.8097Z" fill="white"/>
<path d="M152.683 14.3611C153.331 14.3611 153.93 14.44 154.475 14.5958C155.026 14.7536 155.517 14.9726 155.946 15.2548C156.379 15.5327 156.749 15.8643 157.056 16.2477C157.368 16.6335 157.601 17.0574 157.757 17.5201C157.918 17.9786 158.001 18.4633 158.001 18.9735C158.001 19.4927 157.918 19.9821 157.757 20.4449C157.601 20.9029 157.368 21.3248 157.056 21.7082C156.749 22.0878 156.379 22.4167 155.946 22.6922C155.517 22.963 155.026 23.1753 154.475 23.3241C153.93 23.4756 153.331 23.5497 152.683 23.5497H144.989V29.3807H142.682V14.3615H152.683V14.3611ZM152.342 21.8621C152.873 21.8621 153.348 21.7942 153.764 21.6541C154.186 21.5163 154.538 21.3181 154.826 21.0583C155.118 20.8008 155.337 20.4939 155.488 20.1376C155.636 19.7769 155.712 19.3844 155.712 18.9554C155.712 18.5402 155.636 18.1567 155.488 17.8C155.337 17.4456 155.118 17.1367 154.826 16.8706C154.538 16.6065 154.185 16.4012 153.764 16.2568C153.348 16.1119 152.873 16.0397 152.342 16.0397H144.989V21.8621H152.342Z" fill="white"/>
<path d="M165.955 27.6201H176.853V29.3804H163.647V14.3611H176.25V16.121H165.956V20.8601H172.364V22.494H165.956V27.6205L165.955 27.6201Z" fill="white"/>
<path d="M182.415 29.3803V14.3611H192.329C193.055 14.3611 193.707 14.431 194.287 14.5687C194.871 14.7085 195.372 14.9027 195.796 15.1555C196.225 15.4082 196.578 15.7061 196.857 16.0488C197.135 16.3875 197.344 16.7595 197.481 17.1681C197.622 17.572 197.695 17.9962 197.695 18.4409C197.695 19.0547 197.583 19.605 197.364 20.0928C197.15 20.5803 196.841 20.9951 196.439 21.3381C196.042 21.6812 195.565 21.95 195.007 22.1411C194.455 22.3354 193.844 22.4437 193.176 22.4665C193.507 22.6537 193.785 22.8817 194.014 23.1526C194.24 23.4234 194.433 23.726 194.589 24.0549C194.744 24.3869 194.876 24.7389 194.988 25.111C195.098 25.4791 195.202 25.8555 195.3 26.2394C195.397 26.6185 195.499 26.9972 195.612 27.3764C195.729 27.7512 195.867 28.1076 196.03 28.4502C196.191 28.7889 196.393 29.0982 196.634 29.38H194.18C193.978 29.1519 193.812 28.8992 193.684 28.6221C193.552 28.3399 193.44 28.042 193.342 27.7284C193.25 27.4105 193.167 27.0875 193.089 26.7629C193.011 26.4333 192.933 26.1083 192.855 25.788C192.777 25.4631 192.685 25.1538 192.583 24.8586C192.478 24.5584 192.351 24.2805 192.203 24.0286C192.052 23.7754 191.872 23.5568 191.657 23.3692C191.443 23.1843 191.182 23.0395 190.879 22.9359C190.579 22.8276 190.221 22.7734 189.807 22.7734H184.724V29.3803H182.415H182.415ZM184.723 21.1305H191.998C192.796 21.1305 193.451 21.0289 193.965 20.8236C194.476 20.6136 194.856 20.3181 195.104 19.9394C195.35 19.5598 195.474 19.1156 195.474 18.6034C195.474 18.0932 195.35 17.6465 195.104 17.2674C194.856 16.8836 194.476 16.5857 193.965 16.3741C193.451 16.1641 192.796 16.0578 191.998 16.0578H184.723V21.1305Z" fill="white"/>
<path d="M212.646 22.0874H220.359V29.3804H218.723L218.441 26.4019C217.732 27.4623 216.78 28.2567 215.587 28.7846C214.392 29.3148 212.982 29.5786 211.36 29.5786C210.497 29.5786 209.671 29.502 208.887 29.3529C208.108 29.1971 207.378 28.969 206.696 28.6668C206.019 28.3666 205.41 27.9961 204.865 27.5565C204.319 27.1185 203.852 26.6134 203.463 26.04C203.073 25.4689 202.771 24.8351 202.557 24.1353C202.348 23.4379 202.245 22.68 202.245 21.8613C202.245 21.0489 202.348 20.2949 202.557 19.5956C202.771 18.8981 203.073 18.2643 203.463 17.6909C203.852 17.1198 204.319 16.6171 204.865 16.1834C205.41 15.7458 206.019 15.3761 206.696 15.0735C207.378 14.7732 208.108 14.5475 208.887 14.3964C209.671 14.2406 210.497 14.1617 211.36 14.1617C212.242 14.1617 213.084 14.243 213.883 14.4055C214.686 14.5632 215.434 14.7979 216.123 15.1092C216.817 15.4228 217.44 15.809 217.993 16.2642C218.543 16.7226 219.01 17.2482 219.395 17.8443C219.785 18.4354 220.072 19.0897 220.261 19.8118H218.002C217.78 19.1799 217.462 18.625 217.048 18.1422C216.632 17.661 216.133 17.2576 215.548 16.9326C214.969 16.6076 214.326 16.3639 213.62 16.2014C212.911 16.0346 212.159 15.9487 211.36 15.9487C210.574 15.9487 209.831 16.0299 209.13 16.1924C208.433 16.3549 207.798 16.5967 207.221 16.9146C206.641 17.2352 206.143 17.632 205.721 18.1057C205.297 18.5755 204.971 19.1258 204.738 19.7577C204.509 20.3852 204.397 21.0846 204.397 21.8609C204.397 22.6435 204.509 23.35 204.738 23.9815C204.972 24.6137 205.298 25.1707 205.721 25.6514C206.143 26.1279 206.641 26.5247 207.221 26.843C207.798 27.1637 208.433 27.4027 209.13 27.5648C209.831 27.7272 210.574 27.8085 211.36 27.8085C212.163 27.8085 212.923 27.7272 213.639 27.5648C214.36 27.398 215.014 27.1448 215.606 26.8069C216.195 26.4639 216.702 26.031 217.125 25.507C217.554 24.9787 217.878 24.3496 218.099 23.6204H212.646V22.0862L212.646 22.0874Z" fill="white"/>
<path d="M238.358 29.3803L236.887 25.77H228.93L227.46 29.3803H225.045L231.463 14.3611H234.316L240.734 29.3803H238.358H238.358ZM229.603 24.1094H236.206L233.011 16.2839H232.787L229.603 24.1094Z" fill="white"/>
<path d="M258.877 14.3611H261.165V29.3803H258.341L248.349 16.8341V29.3803H246.071V14.3611H248.876L258.877 26.9074V14.3611Z" fill="white"/>
<path d="M268.294 29.3803V14.3611H276.046C277.122 14.3611 278.091 14.4828 278.948 14.7222C279.805 14.9569 280.555 15.298 281.198 15.7418C281.841 16.1822 282.376 16.712 282.805 17.3306C283.233 17.9444 283.555 18.6348 283.769 19.3977C283.983 20.1627 284.09 20.9841 284.09 21.8621C284.09 22.7463 283.983 23.5725 283.769 24.3351C283.554 25.0996 283.233 25.7927 282.805 26.4113C282.376 27.0318 281.841 27.5644 281.198 28.0086C280.555 28.449 279.805 28.7893 278.948 29.0287C278.091 29.2634 277.122 29.3807 276.046 29.3807H268.294V29.3803ZM270.602 27.6201H275.968C276.941 27.6201 277.789 27.4847 278.509 27.2139C279.23 26.9431 279.826 26.5549 280.301 26.0494C280.774 25.5439 281.124 24.9395 281.353 24.2354C281.587 23.527 281.704 22.7346 281.704 21.8617C281.704 20.9951 281.587 20.2094 281.353 19.5057C281.124 18.802 280.773 18.1968 280.301 17.6913C279.826 17.1858 279.23 16.798 278.509 16.5272C277.788 16.2564 276.941 16.1206 275.968 16.1206H270.602V27.6201Z" fill="white"/>
<path d="M301.624 29.3803L300.153 25.77H292.196L290.726 29.3803H288.311L294.728 14.3611H297.582L304 29.3803H301.624H301.624ZM292.869 24.1094H299.472L296.277 16.2839H296.053L292.869 24.1094Z" fill="white"/>
</svg>
