<svg width="63" height="44" viewBox="0 0 63 44" fill="none" xmlns="http://www.w3.org/2000/svg">
<path d="M16.992 26.6001L13.1013 28.6817V42.6303C13.1013 43.2437 12.5639 43.741 11.9029 43.741C11.2411 43.741 10.7045 43.2434 10.7045 42.6303V28.6817L0.603848 23.2766C0.220621 23.0721 0.00508147 22.7004 0.00508147 22.3178L0 10.8614C0 10.4132 0.28668 10.0274 0.698703 9.85196L11.3033 4.17481C11.6874 3.96876 12.1434 3.9825 12.5025 4.17481L16.9255 6.54222L29.0165 0.144485C29.3989 -0.0568544 29.8507 -0.0407629 30.206 0.149195L44.667 7.88959C45.0502 8.09407 45.2658 8.46613 45.2658 8.8484L45.2708 24.3312C45.2708 24.779 44.9842 25.1648 44.5721 25.3406L30.2055 33.0308C29.8215 33.2368 29.3654 33.2231 29.0063 33.0308L16.992 26.6004V26.6001ZM48.7669 22.4528C48.227 22.1031 48.0949 21.4127 48.4722 20.9123C48.8495 20.4119 49.5939 20.2891 50.1342 20.6387L59.6065 26.7865C60.1464 27.1366 60.279 27.8265 59.9017 28.3273C59.5239 28.8277 58.7795 28.9506 58.2392 28.6009L48.7669 22.4528ZM50.1342 12.5392C49.5939 12.8889 48.8495 12.7661 48.4722 12.2657C48.0949 11.7653 48.227 11.0749 48.7669 10.7252L58.2392 4.57749C58.7795 4.2274 59.5239 4.35025 59.9017 4.85065C60.279 5.35145 60.1464 6.04142 59.6065 6.39151L50.1342 12.5392ZM49.4504 17.7003C48.7889 17.7003 48.252 17.2026 48.252 16.5896C48.252 15.9761 48.7893 15.4789 49.4504 15.4789H61.0141C61.6759 15.4789 62.2125 15.9765 62.2125 16.5896C62.2125 17.203 61.6755 17.7003 61.0141 17.7003H49.4504ZM19.3215 7.82483L25.0826 10.9081C25.6534 11.2123 25.8503 11.8889 25.5221 12.4184C25.1939 12.9474 24.4639 13.1299 23.8931 12.8261L11.9025 6.41349L2.39634 11.4968V21.6819L11.9046 26.7672L14.605 25.3225L9.02893 22.3378C8.45769 22.0336 8.26078 21.357 8.58896 20.8279C8.91714 20.2985 9.64718 20.116 10.218 20.4201L29.6055 30.7917L42.8732 23.695V9.48421L29.6017 2.38473L19.3215 7.82483Z" fill="black"/>
</svg>
