<svg width="32" height="32" viewBox="0 0 32 32" fill="none" xmlns="http://www.w3.org/2000/svg">
<path d="M18.748 22.852C19.0578 22.9943 19.4068 23.0268 19.7375 22.9442C20.0683 22.8615 20.361 22.6687 20.5675 22.3975L21.1 21.7C21.3794 21.3274 21.7418 21.025 22.1584 20.8167C22.5749 20.6084 23.0343 20.5 23.5 20.5H28C28.7956 20.5 29.5587 20.8161 30.1213 21.3787C30.6839 21.9413 31 22.7044 31 23.5V28C31 28.7956 30.6839 29.5587 30.1213 30.1213C29.5587 30.6839 28.7956 31 28 31C20.8392 31 13.9716 28.1554 8.90812 23.0919C3.84464 18.0284 1 11.1608 1 4C1 3.20435 1.31607 2.44129 1.87868 1.87868C2.44129 1.31607 3.20435 1 4 1H8.5C9.29565 1 10.0587 1.31607 10.6213 1.87868C11.1839 2.44129 11.5 3.20435 11.5 4V8.5C11.5 8.96574 11.3916 9.42507 11.1833 9.84164C10.975 10.2582 10.6726 10.6206 10.3 10.9L9.598 11.4265C9.32262 11.6368 9.12853 11.9359 9.04869 12.273C8.96884 12.6102 9.00817 12.9646 9.16 13.276C11.21 17.4398 14.5816 20.8072 18.748 22.852Z" stroke="black" stroke-width="2" stroke-linecap="round" stroke-linejoin="round"/>
</svg>
