<svg width="133" height="66" viewBox="0 0 133 66" fill="none" xmlns="http://www.w3.org/2000/svg">
<path d="M0.574133 51.9689H2.74272C3.1714 51.9689 3.51698 52.0903 3.77944 52.3331C4.0419 52.5736 4.17313 52.9127 4.17313 53.3501C4.17313 53.7263 4.05611 54.0544 3.82209 54.3343C3.58806 54.6121 3.22827 54.751 2.74272 54.751H1.227V56.7883H0.574133V51.9689ZM3.5137 53.3534C3.5137 52.9991 3.38247 52.7585 3.12 52.6316C2.97565 52.5638 2.77771 52.5299 2.52619 52.5299H1.227V54.1998H2.52619C2.81927 54.1998 3.05658 54.1375 3.23811 54.0128C3.42183 53.8881 3.5137 53.6683 3.5137 53.3534ZM5.70196 51.9689V54.9478C5.70196 55.2978 5.76758 55.5887 5.89881 55.8205C6.09347 56.1705 6.42154 56.3454 6.88304 56.3454C7.43639 56.3454 7.81259 56.1562 8.01162 55.7779C8.11879 55.5723 8.17238 55.2956 8.17238 54.9478V51.9689H8.83509V54.6755C8.83509 55.2682 8.75526 55.7243 8.5956 56.0436C8.30251 56.6254 7.74916 56.9163 6.93553 56.9163C6.1219 56.9163 5.56964 56.6254 5.27875 56.0436C5.11908 55.7243 5.03925 55.2682 5.03925 54.6755V51.9689H5.70196ZM11.6598 54.0062C11.9354 54.0062 12.1498 53.968 12.3029 53.8914C12.5434 53.7711 12.6637 53.5546 12.6637 53.2418C12.6637 52.9269 12.5358 52.7147 12.2799 52.6054C12.1355 52.5441 11.9212 52.5135 11.6369 52.5135H10.4722V54.0062H11.6598ZM11.8796 56.2306C12.2799 56.2306 12.5653 56.1147 12.7359 55.8828C12.8431 55.7363 12.8967 55.5591 12.8967 55.3514C12.8967 55.0014 12.7403 54.763 12.4275 54.6362C12.2613 54.5683 12.0415 54.5344 11.7681 54.5344H10.4722V56.2306H11.8796ZM9.83244 51.9689H11.9026C12.4669 51.9689 12.8682 52.1373 13.1066 52.4741C13.2466 52.6732 13.3166 52.9028 13.3166 53.1631C13.3166 53.4671 13.2302 53.7164 13.0574 53.9111C12.9678 54.0139 12.8387 54.1079 12.6703 54.1932C12.9175 54.2873 13.1023 54.3934 13.2248 54.5115C13.4413 54.7215 13.5495 55.0113 13.5495 55.3809C13.5495 55.6915 13.4522 55.9725 13.2576 56.224C12.9667 56.6002 12.5041 56.7883 11.8698 56.7883H9.83244V51.9689ZM14.3304 51.9689H14.9832V56.2142H17.4241V56.7883H14.3304V51.9689ZM18.2181 51.9689H18.8775V56.7883H18.2181V51.9689ZM21.9713 51.8377C22.5815 51.8377 23.055 51.9984 23.3918 52.3199C23.7287 52.6414 23.9157 53.0067 23.9528 53.4157H23.3164C23.2442 53.1051 23.0998 52.8591 22.8833 52.6775C22.669 52.496 22.3671 52.4052 21.9778 52.4052C21.5032 52.4052 21.1194 52.5726 20.8263 52.9072C20.5354 53.2396 20.3899 53.7503 20.3899 54.4393C20.3899 55.0036 20.5212 55.4618 20.7836 55.8139C21.0483 56.1639 21.442 56.3389 21.9647 56.3389C22.4459 56.3389 22.8122 56.154 23.0638 55.7844C23.1972 55.5898 23.2967 55.3339 23.3623 55.0167H23.9988C23.9419 55.5241 23.7538 55.9495 23.4345 56.2929C23.0517 56.7063 22.5356 56.913 21.886 56.913C21.326 56.913 20.8558 56.7435 20.4752 56.4045C19.9744 55.9561 19.7239 55.2639 19.7239 54.3278C19.7239 53.6169 19.912 53.034 20.2882 52.5791C20.695 52.0848 21.2561 51.8377 21.9713 51.8377ZM28.9068 54.1768C29.213 54.1768 29.4547 54.1156 29.6318 53.9931C29.8112 53.8706 29.9009 53.6497 29.9009 53.3304C29.9009 52.987 29.7762 52.753 29.5269 52.6283C29.3934 52.5627 29.2152 52.5299 28.9921 52.5299H27.3976V54.1768H28.9068ZM26.7448 51.9689H28.9757C29.3431 51.9689 29.6461 52.0225 29.8845 52.1296C30.3372 52.3352 30.5636 52.7147 30.5636 53.2681C30.5636 53.5568 30.5034 53.793 30.3831 53.9767C30.265 54.1604 30.0988 54.3081 29.8845 54.4196C30.0726 54.4962 30.2136 54.5968 30.3077 54.7215C30.4039 54.8461 30.4575 55.0484 30.4684 55.3284L30.4914 55.9747C30.498 56.1584 30.5133 56.2951 30.5373 56.3848C30.5767 56.5379 30.6467 56.6363 30.7473 56.6801V56.7883H29.9468C29.9249 56.7468 29.9074 56.6932 29.8943 56.6276C29.8812 56.562 29.8702 56.4351 29.8615 56.247L29.8221 55.4432C29.8068 55.1283 29.6898 54.9172 29.4711 54.81C29.3464 54.751 29.1507 54.7215 28.8838 54.7215H27.3976V56.7883H26.7448V51.9689ZM31.5839 51.9689H35.0976V52.5594H32.2204V54.0226H34.8811V54.5804H32.2204V56.2142H35.1468V56.7883H31.5839V51.9689ZM36.0031 51.9689H36.6559V56.2142H39.0968V56.7883H36.0031V51.9689ZM42.2168 54.8133L41.4852 52.6841L40.7077 54.8133H42.2168ZM41.144 51.9689H41.8822L43.6309 56.7883H42.9156L42.4268 55.3448H40.5207L39.999 56.7883H39.3298L41.144 51.9689ZM47.2331 51.9689V52.543H45.6092V56.7883H44.9464V52.543H43.3225V51.9689H47.2331ZM47.9811 51.9689H48.6406V56.7883H47.9811V51.9689ZM51.7835 51.8377C52.6344 51.8377 53.2643 52.1111 53.6733 52.6579C53.9926 53.0844 54.1523 53.6301 54.1523 54.295C54.1523 55.0145 53.9696 55.6127 53.6044 56.0895C53.1757 56.6494 52.5644 56.9294 51.7704 56.9294C51.029 56.9294 50.4461 56.6844 50.0218 56.1945C49.6434 55.7221 49.4542 55.125 49.4542 54.4032C49.4542 53.7514 49.6161 53.1937 49.9398 52.73C50.3553 52.1351 50.9699 51.8377 51.7835 51.8377ZM51.8492 56.3454C52.4244 56.3454 52.8399 56.1398 53.0958 55.7286C53.3539 55.3153 53.483 54.8407 53.483 54.3048C53.483 53.7383 53.3343 53.2823 53.0368 52.9367C52.7415 52.5911 52.3369 52.4184 51.8229 52.4184C51.3242 52.4184 50.9174 52.59 50.6025 52.9334C50.2875 53.2746 50.13 53.7788 50.13 54.4459C50.13 54.9795 50.2646 55.4301 50.5336 55.7975C50.8048 56.1628 51.2433 56.3454 51.8492 56.3454ZM54.9331 51.9689H55.7041L58.1384 55.873V51.9689H58.7584V56.7883H58.0268L55.5564 52.8875V56.7883H54.9331V51.9689ZM60.2151 55.2332C60.2304 55.5066 60.2949 55.7286 60.4087 55.8992C60.6252 56.2186 61.0069 56.3782 61.5537 56.3782C61.7986 56.3782 62.0217 56.3432 62.2229 56.2733C62.6122 56.1376 62.8069 55.8949 62.8069 55.5449C62.8069 55.2825 62.7249 55.0955 62.5608 54.9839C62.3946 54.8746 62.1343 54.7794 61.78 54.6985L61.1272 54.5509C60.7007 54.4546 60.3988 54.3485 60.2217 54.2326C59.9155 54.0314 59.7624 53.7307 59.7624 53.3304C59.7624 52.8973 59.9122 52.5419 60.2118 52.2642C60.5115 51.9864 60.9358 51.8475 61.4848 51.8475C61.99 51.8475 62.4187 51.97 62.7708 52.2149C63.1251 52.4577 63.3023 52.847 63.3023 53.3829H62.6888C62.656 53.1248 62.586 52.9269 62.4788 52.7891C62.2798 52.5376 61.9419 52.4118 61.4651 52.4118C61.0801 52.4118 60.8034 52.4927 60.635 52.6546C60.4666 52.8164 60.3824 53.0045 60.3824 53.2189C60.3824 53.4551 60.4808 53.6279 60.6777 53.7372C60.8067 53.8072 61.0987 53.8947 61.5537 53.9997L62.2295 54.1539C62.5554 54.2282 62.8069 54.3299 62.9841 54.459C63.2903 54.6843 63.4434 55.0113 63.4434 55.4399C63.4434 55.9736 63.2487 56.3553 62.8594 56.5849C62.4723 56.8146 62.0217 56.9294 61.5077 56.9294C60.9084 56.9294 60.4393 56.7763 60.1003 56.4701C59.7613 56.1661 59.595 55.7538 59.6016 55.2332H60.2151ZM68.1709 51.8377C68.7812 51.8377 69.2547 51.9984 69.5915 52.3199C69.9283 52.6414 70.1153 53.0067 70.1525 53.4157H69.5161C69.4439 53.1051 69.2995 52.8591 69.083 52.6775C68.8687 52.496 68.5668 52.4052 68.1775 52.4052C67.7029 52.4052 67.319 52.5726 67.026 52.9072C66.7351 53.2396 66.5896 53.7503 66.5896 54.4393C66.5896 55.0036 66.7209 55.4618 66.9833 55.8139C67.248 56.1639 67.6417 56.3389 68.1644 56.3389C68.6456 56.3389 69.0119 56.154 69.2634 55.7844C69.3969 55.5898 69.4964 55.3339 69.562 55.0167H70.1985C70.1416 55.5241 69.9535 55.9495 69.6342 56.2929C69.2514 56.7063 68.7352 56.913 68.0856 56.913C67.5257 56.913 67.0555 56.7435 66.6749 56.4045C66.1741 55.9561 65.9236 55.2639 65.9236 54.3278C65.9236 53.6169 66.1117 53.034 66.4879 52.5791C66.8947 52.0848 67.4557 51.8377 68.1709 51.8377ZM73.0757 51.8377C73.9265 51.8377 74.5564 52.1111 74.9654 52.6579C75.2847 53.0844 75.4444 53.6301 75.4444 54.295C75.4444 55.0145 75.2618 55.6127 74.8965 56.0895C74.4678 56.6494 73.8565 56.9294 73.0626 56.9294C72.3211 56.9294 71.7382 56.6844 71.3139 56.1945C70.9355 55.7221 70.7463 55.125 70.7463 54.4032C70.7463 53.7514 70.9082 53.1937 71.2319 52.73C71.6475 52.1351 72.2621 51.8377 73.0757 51.8377ZM73.1413 56.3454C73.7165 56.3454 74.1321 56.1398 74.388 55.7286C74.6461 55.3153 74.7751 54.8407 74.7751 54.3048C74.7751 53.7383 74.6264 53.2823 74.3289 52.9367C74.0337 52.5911 73.629 52.4184 73.1151 52.4184C72.6164 52.4184 72.2096 52.59 71.8946 52.9334C71.5797 53.2746 71.4222 53.7788 71.4222 54.4459C71.4222 54.9795 71.5567 55.4301 71.8257 55.7975C72.0969 56.1628 72.5355 56.3454 73.1413 56.3454ZM76.2252 51.9689H76.9962L79.4305 55.873V51.9689H80.0506V56.7883H79.319L76.8486 52.8875V56.7883H76.2252V51.9689ZM81.5072 55.2332C81.5226 55.5066 81.5871 55.7286 81.7008 55.8992C81.9173 56.2186 82.299 56.3782 82.8458 56.3782C83.0908 56.3782 83.3139 56.3432 83.5151 56.2733C83.9044 56.1376 84.099 55.8949 84.099 55.5449C84.099 55.2825 84.017 55.0955 83.853 54.9839C83.6868 54.8746 83.4265 54.7794 83.0722 54.6985L82.4193 54.5509C81.9928 54.4546 81.691 54.3485 81.5138 54.2326C81.2076 54.0314 81.0545 53.7307 81.0545 53.3304C81.0545 52.8973 81.2043 52.5419 81.504 52.2642C81.8036 51.9864 82.2279 51.8475 82.7769 51.8475C83.2821 51.8475 83.7108 51.97 84.063 52.2149C84.4173 52.4577 84.5944 52.847 84.5944 53.3829H83.9809C83.9481 53.1248 83.8781 52.9269 83.771 52.7891C83.5719 52.5376 83.234 52.4118 82.7572 52.4118C82.3723 52.4118 82.0956 52.4927 81.9272 52.6546C81.7588 52.8164 81.6746 53.0045 81.6746 53.2189C81.6746 53.4551 81.773 53.6279 81.9698 53.7372C82.0989 53.8072 82.3909 53.8947 82.8458 53.9997L83.5216 54.1539C83.8475 54.2282 84.099 54.3299 84.2762 54.459C84.5824 54.6843 84.7355 55.0113 84.7355 55.4399C84.7355 55.9736 84.5409 56.3553 84.1515 56.5849C83.7644 56.8146 83.3139 56.9294 82.7999 56.9294C82.2006 56.9294 81.7314 56.7763 81.3924 56.4701C81.0534 56.1661 80.8872 55.7538 80.8937 55.2332H81.5072ZM86.2709 51.9689V54.9478C86.2709 55.2978 86.3365 55.5887 86.4678 55.8205C86.6624 56.1705 86.9905 56.3454 87.452 56.3454C88.0053 56.3454 88.3815 56.1562 88.5806 55.7779C88.6877 55.5723 88.7413 55.2956 88.7413 54.9478V51.9689H89.404V54.6755C89.404 55.2682 89.3242 55.7243 89.1645 56.0436C88.8715 56.6254 88.3181 56.9163 87.5045 56.9163C86.6908 56.9163 86.1386 56.6254 85.8477 56.0436C85.688 55.7243 85.6082 55.2682 85.6082 54.6755V51.9689H86.2709ZM90.4178 51.9689H91.0707V56.2142H93.5115V56.7883H90.4178V51.9689ZM97.1663 51.9689V52.543H95.5423V56.7883H94.8796V52.543H93.2556V51.9689H97.1663ZM99.7417 54.8133L99.0101 52.6841L98.2326 54.8133H99.7417ZM98.6689 51.9689H99.4071L101.156 56.7883H100.441L99.9517 55.3448H98.0456L97.5239 56.7883H96.8546L98.6689 51.9689ZM101.75 51.9689H102.521L104.955 55.873V51.9689H105.575V56.7883H104.843L102.373 52.8875V56.7883H101.75V51.9689ZM110.112 51.9689V52.543H108.488V56.7883H107.826V52.543H106.202V51.9689H110.112ZM111.139 55.2332C111.154 55.5066 111.219 55.7286 111.333 55.8992C111.549 56.2186 111.931 56.3782 112.478 56.3782C112.723 56.3782 112.946 56.3432 113.147 56.2733C113.536 56.1376 113.731 55.8949 113.731 55.5449C113.731 55.2825 113.649 55.0955 113.485 54.9839C113.319 54.8746 113.058 54.7794 112.704 54.6985L112.051 54.5509C111.625 54.4546 111.323 54.3485 111.146 54.2326C110.839 54.0314 110.686 53.7307 110.686 53.3304C110.686 52.8973 110.836 52.5419 111.136 52.2642C111.435 51.9864 111.86 51.8475 112.409 51.8475C112.914 51.8475 113.343 51.97 113.695 52.2149C114.049 52.4577 114.226 52.847 114.226 53.3829H113.613C113.58 53.1248 113.51 52.9269 113.403 52.7891C113.204 52.5376 112.866 52.4118 112.389 52.4118C112.004 52.4118 111.727 52.4927 111.559 52.6546C111.391 52.8164 111.306 53.0045 111.306 53.2189C111.306 53.4551 111.405 53.6279 111.602 53.7372C111.731 53.8072 112.023 53.8947 112.478 53.9997L113.153 54.1539C113.479 54.2282 113.731 54.3299 113.908 54.459C114.214 54.6843 114.367 55.0113 114.367 55.4399C114.367 55.9736 114.173 56.3553 113.783 56.5849C113.396 56.8146 112.946 56.9294 112.432 56.9294C111.832 56.9294 111.363 56.7763 111.024 56.4701C110.685 56.1661 110.519 55.7538 110.526 55.2332H111.139Z" fill="#939598"/>
<path d="M2.98549 62.9617L2.25388 60.8325L1.47634 62.9617H2.98549ZM1.91268 60.1173H2.65086L4.3995 64.9368H3.6843L3.19546 63.4932H1.28934L0.767698 64.9368H0.0984228L1.91268 60.1173ZM5.41982 63.3817C5.43513 63.6551 5.49965 63.8771 5.61338 64.0477C5.82991 64.367 6.21158 64.5267 6.75837 64.5267C7.00333 64.5267 7.22642 64.4917 7.42764 64.4217C7.81696 64.2861 8.01162 64.0433 8.01162 63.6934C8.01162 63.4309 7.9296 63.2439 7.76556 63.1323C7.59934 63.023 7.33906 62.9278 6.98474 62.8469L6.33187 62.6993C5.90537 62.6031 5.60354 62.497 5.42638 62.3811C5.12018 62.1798 4.96707 61.8791 4.96707 61.4788C4.96707 61.0458 5.11689 60.6904 5.41654 60.4126C5.71618 60.1348 6.14049 59.9959 6.68947 59.9959C7.19471 59.9959 7.6234 60.1184 7.97553 60.3634C8.32985 60.6062 8.50702 60.9955 8.50702 61.5313H7.89351C7.86071 61.2733 7.79072 61.0753 7.68354 60.9375C7.48451 60.686 7.14659 60.5602 6.66979 60.5602C6.28485 60.5602 6.00817 60.6412 5.83976 60.803C5.67134 60.9649 5.58714 61.153 5.58714 61.3673C5.58714 61.6035 5.68556 61.7763 5.88241 61.8857C6.01145 61.9556 6.30344 62.0431 6.75837 62.1481L7.43421 62.3023C7.7601 62.3767 8.01162 62.4784 8.18878 62.6074C8.49499 62.8327 8.64809 63.1597 8.64809 63.5884C8.64809 64.122 8.45343 64.5037 8.06411 64.7334C7.67698 64.963 7.22642 65.0778 6.71244 65.0778C6.11315 65.0778 5.644 64.9247 5.30499 64.6185C4.96598 64.3145 4.79975 63.9022 4.80632 63.3817H5.41982ZM9.90134 63.3817C9.91665 63.6551 9.98117 63.8771 10.0949 64.0477C10.3114 64.367 10.6931 64.5267 11.2399 64.5267C11.4849 64.5267 11.7079 64.4917 11.9092 64.4217C12.2985 64.2861 12.4931 64.0433 12.4931 63.6934C12.4931 63.4309 12.4111 63.2439 12.2471 63.1323C12.0809 63.023 11.8206 62.9278 11.4663 62.8469L10.8134 62.6993C10.3869 62.6031 10.0851 62.497 9.9079 62.3811C9.6017 62.1798 9.44859 61.8791 9.44859 61.4788C9.44859 61.0458 9.59842 60.6904 9.89806 60.4126C10.1977 60.1348 10.622 59.9959 11.171 59.9959C11.6762 59.9959 12.1049 60.1184 12.4571 60.3634C12.8114 60.6062 12.9885 60.9955 12.9885 61.5313H12.375C12.3422 61.2733 12.2722 61.0753 12.1651 60.9375C11.966 60.686 11.6281 60.5602 11.1513 60.5602C10.7664 60.5602 10.4897 60.6412 10.3213 60.803C10.1529 60.9649 10.0687 61.153 10.0687 61.3673C10.0687 61.6035 10.1671 61.7763 10.3639 61.8857C10.493 61.9556 10.785 62.0431 11.2399 62.1481L11.9157 62.3023C12.2416 62.3767 12.4931 62.4784 12.6703 62.6074C12.9765 62.8327 13.1296 63.1597 13.1296 63.5884C13.1296 64.122 12.935 64.5037 12.5456 64.7334C12.1585 64.963 11.7079 65.0778 11.194 65.0778C10.5947 65.0778 10.1255 64.9247 9.78651 64.6185C9.4475 64.3145 9.28128 63.9022 9.28784 63.3817H9.90134ZM16.0364 59.9861C16.8872 59.9861 17.5171 60.2595 17.9261 60.8063C18.2454 61.2328 18.4051 61.7785 18.4051 62.4434C18.4051 63.163 18.2224 63.7612 17.8572 64.238C17.4285 64.7979 16.8172 65.0778 16.0232 65.0778C15.2818 65.0778 14.6989 64.8329 14.2746 64.3429C13.8962 63.8705 13.707 63.2734 13.707 62.5517C13.707 61.8999 13.8689 61.3421 14.1926 60.8785C14.6081 60.2836 15.2227 59.9861 16.0364 59.9861ZM16.102 64.4939C16.6772 64.4939 17.0928 64.2883 17.3487 63.8771C17.6068 63.4637 17.7358 62.9891 17.7358 62.4532C17.7358 61.8868 17.5871 61.4307 17.2896 61.0852C16.9943 60.7396 16.5897 60.5668 16.0757 60.5668C15.5771 60.5668 15.1702 60.7385 14.8553 61.0819C14.5403 61.4231 14.3829 61.9272 14.3829 62.5943C14.3829 63.128 14.5174 63.5785 14.7864 63.946C15.0576 64.3112 15.4961 64.4939 16.102 64.4939ZM21.2167 59.9861C21.8269 59.9861 22.3004 60.1469 22.6373 60.4684C22.9741 60.7899 23.1611 61.1551 23.1983 61.5641H22.5618C22.4896 61.2536 22.3453 61.0075 22.1287 60.826C21.9144 60.6444 21.6126 60.5537 21.2232 60.5537C20.7486 60.5537 20.3648 60.721 20.0717 61.0556C19.7808 61.3881 19.6354 61.8988 19.6354 62.5877C19.6354 63.152 19.7666 63.6102 20.029 63.9624C20.2937 64.3123 20.6874 64.4873 21.2101 64.4873C21.6913 64.4873 22.0577 64.3025 22.3092 63.9329C22.4426 63.7382 22.5421 63.4823 22.6077 63.1652H23.2442C23.1873 63.6726 22.9992 64.098 22.6799 64.4414C22.2971 64.8547 21.781 65.0614 21.1314 65.0614C20.5715 65.0614 20.1012 64.8919 19.7207 64.5529C19.2198 64.1045 18.9694 63.4123 18.9694 62.4762C18.9694 61.7654 19.1575 61.1825 19.5337 60.7276C19.9405 60.2332 20.5015 59.9861 21.2167 59.9861ZM24.1891 60.1173H24.8485V64.9368H24.1891V60.1173ZM28.3852 62.9617L27.6535 60.8325L26.876 62.9617H28.3852ZM27.3123 60.1173H28.0505L29.7992 64.9368H29.084L28.5951 63.4932H26.689L26.1674 64.9368H25.4981L27.3123 60.1173ZM33.4014 60.1173V60.6915H31.7775V64.9368H31.1147V60.6915H29.4908V60.1173H33.4014ZM34.1495 60.1173H34.8089V64.9368H34.1495V60.1173ZM37.9519 59.9861C38.8027 59.9861 39.4326 60.2595 39.8416 60.8063C40.1609 61.2328 40.3206 61.7785 40.3206 62.4434C40.3206 63.163 40.1379 63.7612 39.7727 64.238C39.344 64.7979 38.7327 65.0778 37.9387 65.0778C37.1973 65.0778 36.6144 64.8329 36.1901 64.3429C35.8117 63.8705 35.6225 63.2734 35.6225 62.5517C35.6225 61.8999 35.7844 61.3421 36.1081 60.8785C36.5236 60.2836 37.1382 59.9861 37.9519 59.9861ZM38.0175 64.4939C38.5927 64.4939 39.0083 64.2883 39.2642 63.8771C39.5222 63.4637 39.6513 62.9891 39.6513 62.4532C39.6513 61.8868 39.5026 61.4307 39.2051 61.0852C38.9098 60.7396 38.5052 60.5668 37.9912 60.5668C37.4925 60.5668 37.0857 60.7385 36.7708 61.0819C36.4558 61.4231 36.2983 61.9272 36.2983 62.5943C36.2983 63.128 36.4329 63.5785 36.7019 63.946C36.9731 64.3112 37.4116 64.4939 38.0175 64.4939ZM41.1014 60.1173H41.8724L44.3067 64.0214V60.1173H44.9268V64.9368H44.1951L41.7247 61.0359V64.9368H41.1014V60.1173ZM49.9069 59.9861C50.7578 59.9861 51.3877 60.2595 51.7967 60.8063C52.116 61.2328 52.2757 61.7785 52.2757 62.4434C52.2757 63.163 52.093 63.7612 51.7278 64.238C51.2991 64.7979 50.6878 65.0778 49.8938 65.0778C49.1524 65.0778 48.5695 64.8329 48.1452 64.3429C47.7668 63.8705 47.5776 63.2734 47.5776 62.5517C47.5776 61.8999 47.7395 61.3421 48.0632 60.8785C48.4787 60.2836 49.0933 59.9861 49.9069 59.9861ZM49.9726 64.4939C50.5478 64.4939 50.9634 64.2883 51.2193 63.8771C51.4773 63.4637 51.6064 62.9891 51.6064 62.4532C51.6064 61.8868 51.4577 61.4307 51.1602 61.0852C50.8649 60.7396 50.4603 60.5668 49.9463 60.5668C49.4476 60.5668 49.0408 60.7385 48.7259 61.0819C48.4109 61.4231 48.2534 61.9272 48.2534 62.5943C48.2534 63.128 48.388 63.5785 48.657 63.946C48.9282 64.3112 49.3667 64.4939 49.9726 64.4939ZM53.1188 60.1173H56.4619V60.7079H53.7717V62.1711H56.1371V62.7452H53.7717V64.9368H53.1188V60.1173ZM59.1817 60.1173H59.8411V64.9368H59.1817V60.1173ZM60.9041 60.1173H61.675L64.1094 64.0214V60.1173H64.7294V64.9368H63.9978L61.5274 61.0359V64.9368H60.9041V60.1173ZM67.6099 64.379C67.8308 64.379 68.0124 64.3561 68.1545 64.3101C68.4083 64.2248 68.616 64.0608 68.7779 63.818C68.9069 63.6234 68.9999 63.374 69.0568 63.07C69.0896 62.8885 69.106 62.7201 69.106 62.5648C69.106 61.9677 68.9868 61.504 68.7484 61.1737C68.5121 60.8435 68.1305 60.6783 67.6034 60.6783H66.4453V64.379H67.6099ZM65.7891 60.1173H67.7412C68.4039 60.1173 68.9179 60.3524 69.2831 60.8227C69.609 61.247 69.772 61.7905 69.772 62.4532C69.772 62.965 69.6757 63.4276 69.4833 63.841C69.1442 64.5715 68.5614 64.9368 67.7346 64.9368H65.7891V60.1173ZM70.7628 60.1173H71.4222V64.9368H70.7628V60.1173ZM74.9588 62.9617L74.2272 60.8325L73.4497 62.9617H74.9588ZM73.886 60.1173H74.6242L76.3729 64.9368H75.6576L75.1688 63.4932H73.2627L72.741 64.9368H72.0718L73.886 60.1173Z" fill="#939598"/>
<path d="M57.6566 14.6363C57.6566 7.08936 52.6476 1.07495 43.6667 1.07495H25.9102C28.4879 2.93293 30.4313 5.57261 31.4664 8.62188H43.494C47.294 8.62188 49.7113 11.0984 49.7113 14.6363C49.7113 18.1742 47.294 20.7094 43.494 20.7094H31.6009C30.6779 23.6401 28.9351 26.2287 26.5886 28.1542L41.9968 28.1976L49.9994 42.3492H58.6356L49.9994 27.018C55.0084 24.8962 57.6566 20.1787 57.6566 14.6363Z" fill="#005C7C"/>
<path d="M27.6877 8.62191C27.009 7.08772 26.0314 5.71176 24.8147 4.5785C23.5981 3.44524 22.1681 2.57859 20.6126 2.03175C18.7814 1.37711 16.853 1.05337 14.9136 1.07499H0.00195312V8.62191H14.7408C18.5981 8.62191 21.0162 11.0984 21.0162 14.6363C21.0162 18.1742 18.5981 20.7094 14.7408 20.7094H0.00195312V42.3492H7.65914V28.1977H14.9136C16.853 28.2193 18.7814 27.8955 20.6126 27.2409C22.1579 26.6974 23.5792 25.8382 24.7907 24.7155C26.0021 23.5928 26.9784 22.2299 27.6603 20.7094C28.476 18.8048 28.8995 16.7484 28.9042 14.6686C28.9089 12.5888 28.4948 10.5304 27.6877 8.62191Z" fill="#005C7C"/>
<path d="M108.244 1.07495H100.414L95.9523 13.569L92.9679 21.9264L92.5527 23.0932L90.4202 29.0642L86.1021 41.1594L85.6777 42.35H94.3688L98.0807 31.3605L100.055 25.5195L101.575 21.0189L104.329 12.8682L114.289 42.3492H122.982L108.244 1.07495Z" fill="#005C7C"/>
<path d="M131.513 12.5171H123.855V42.3493H131.513V12.5171Z" fill="#005C7C"/>
<path d="M70.489 27.6007C66.4068 21.3175 66.9881 14.1227 73.0758 9.9742C74.6507 8.80844 76.5018 8.09602 78.4366 7.91101C80.3715 7.72601 82.3194 8.07517 84.0778 8.92219L87.9641 2.02416C84.9441 0.482057 81.5746 -0.199631 78.2088 0.0505487C74.8431 0.300729 71.605 1.47356 68.834 3.44612C59.2013 10.0108 57.5596 22.1765 63.9704 32.0435C64.635 33.0648 65.3725 34.0344 66.1767 34.9444L64.8639 49.0126L74.4385 40.7632C77.0929 41.7736 79.9392 42.1429 82.7558 41.8424L86.1547 32.7051C80.4033 35.8016 74.3023 33.4705 70.489 27.6007Z" fill="#F68B1F"/>
<path d="M127.6 10.4962C128.509 10.5132 129.403 10.2536 130.169 9.75027C130.934 9.24691 131.537 8.52238 131.9 7.66831C132.264 6.81424 132.372 5.86899 132.21 4.95206C132.049 4.03514 131.626 3.18774 130.995 2.517C130.364 1.84626 129.552 1.38232 128.664 1.18383C127.775 0.985348 126.848 1.06123 126.002 1.4019C125.155 1.74256 124.426 2.3327 123.907 3.09769C123.388 3.86268 123.102 4.76818 123.085 5.69967C123.074 6.31824 123.182 6.93299 123.403 7.50882C123.623 8.08466 123.953 8.61029 124.372 9.0557C124.791 9.50111 125.292 9.85758 125.846 10.1047C126.4 10.3519 126.996 10.4849 127.6 10.4962Z" fill="#F68B1F"/>
</svg>
