<svg width="293" height="50" viewBox="0 0 293 50" fill="none" xmlns="http://www.w3.org/2000/svg">
<g clip-path="url(#clip0_1595_429)">
<path d="M23.1301 0H14.7242L0 50C11.208 39.3488 23.1301 0 23.1301 0ZM35.4369 0H27.0309L12.3068 49.9448C23.5697 39.3488 35.4369 0 35.4369 0ZM47.7986 0H39.3926L24.6685 49.9448C35.8764 39.3488 47.7986 0 47.7986 0ZM60.1054 0H51.6994L36.9753 49.9448C48.1832 39.3488 60.1054 0 60.1054 0ZM78.9501 36.1479C79.4446 36.755 79.7193 37.0861 79.7193 37.0861C79.7193 37.0861 80.8731 39.128 81.7521 39.7903C82.6312 40.5077 83.675 41.0044 84.8288 41.3355C86.0375 41.6667 87.3011 41.8322 88.7296 41.8322C90.1581 41.8322 90.5976 41.777 91.6415 41.6115C92.6854 41.4459 93.6743 41.17 94.6083 40.7285C95.5423 40.287 96.3664 39.6799 97.0257 38.9073C97.685 38.1347 98.0696 37.1413 98.1794 35.9272C98.2893 34.6578 97.9597 33.6093 97.1905 32.7815C96.4763 31.9536 95.4873 31.2914 94.2237 30.7395C92.9601 30.1876 91.5316 29.6909 89.9383 29.3598C88.345 28.9735 86.6968 28.532 85.0486 28.0353C83.3454 27.5938 81.6972 27.0419 80.1588 26.3797C78.5655 25.7174 77.192 24.8896 75.9833 23.8962C74.7746 22.8477 73.8406 21.5784 73.1264 20.0883C72.4671 18.5982 72.1924 16.7219 72.3572 14.4592C72.577 11.9757 73.2363 9.87859 74.39 8.05739C75.5438 6.2362 76.9723 4.74614 78.7304 3.53201C80.4335 2.31788 82.3565 1.43488 84.4992 0.883002C86.6419 0.275938 88.7296 0 90.7624 0C92.7952 0 95.4873 0.275938 97.63 0.827815C99.8277 1.37969 101.696 2.26269 103.344 3.53201C104.937 4.80132 106.201 6.34658 107.08 8.33333C107.959 10.2649 107.959 16.8322 107.739 19.5916L98.2893 15.3974C98.2893 13.9625 98.1245 12.8035 97.685 11.8653C97.2455 10.9272 96.696 10.2097 95.8719 9.65784C95.1028 9.10596 94.1688 8.71965 93.1249 8.4989C92.081 8.27814 90.9272 8.16777 89.7185 8.16777C88.5098 8.16777 88.0703 8.27815 87.2462 8.44371C86.4221 8.60927 85.6529 8.9404 84.9387 9.3819C84.2245 9.8234 83.675 10.4305 83.1806 11.0927C82.6861 11.755 82.4114 12.638 82.3565 13.5762C82.3565 14.5143 82.3565 15.287 82.6861 15.8389C83.0157 16.4459 83.6201 16.9426 84.609 17.4393C85.598 17.8808 86.9715 18.3775 88.7296 18.9294C90.4877 19.426 92.7403 20.0883 95.5972 20.8057C96.1466 20.9161 96.8609 21.1369 97.7399 21.3576C98.619 21.5784 99.553 21.9647 100.542 22.351C101.531 22.7925 102.465 23.3444 103.454 24.0066C104.388 24.6689 105.267 25.4967 106.036 26.4901C106.805 27.4834 107.355 28.6424 107.794 29.9669C108.234 31.2914 108.344 32.8918 108.234 34.6578C108.069 36.8653 107.519 38.8521 106.53 40.7285C105.542 42.6049 104.223 44.2053 102.52 45.585C100.817 46.9647 98.7289 48.0132 96.2565 48.7859C93.7842 49.5585 91.0371 49.9448 87.8505 49.9448C84.664 49.9448 82.9059 49.6137 80.5434 48.9514C78.181 48.2892 76.1481 47.2406 74.445 45.8609C72.7418 44.4812 71.4232 42.7152 70.5442 40.5629C69.6102 38.4106 69.2805 35.872 69.5552 32.947L79.1149 36.0927L78.9501 36.1479ZM174.053 48.8411H183.228L184.437 33.2781C184.547 31.7329 184.821 30.3532 185.206 28.9735C185.59 27.5938 186.195 26.4349 187.019 25.4415C187.788 24.4481 188.777 23.6755 189.986 23.0684C191.194 22.5166 192.623 22.1854 194.326 22.1854L195.59 22.2958H195.809V21.9095C195.864 21.9095 198.227 13.7417 198.227 13.7417C197.623 13.521 196.963 13.4106 196.249 13.4106C195.15 13.4106 193.996 13.5762 192.898 13.9073C191.744 14.2936 190.7 14.7903 189.711 15.3974C188.722 16.0596 187.843 16.8322 187.019 17.7152C186.195 18.6534 185.59 19.5916 185.041 20.6954H184.931L185.426 12.1965L176.745 17.1634L174.053 48.8411ZM199.765 48.8411H208.94L212.292 1.10375L203.446 6.84327L199.765 48.8411ZM269.101 27.8698C269.156 27.2075 269.375 26.4349 269.705 25.6071C269.98 24.7792 270.474 23.9514 271.134 23.1788C271.793 22.4062 272.562 21.7991 273.606 21.2472C274.595 20.7506 275.858 20.4746 277.287 20.4746C279.539 20.4746 281.133 21.0817 282.122 22.351C283.111 23.5651 283.275 24.1722 283.825 26.5453L269.101 27.8146V27.8698ZM292.945 32.064C293.11 30.0773 293 28.0905 292.725 26.2141C292.341 23.7859 291.517 21.5784 290.253 19.6468C289.044 17.7152 287.451 16.2252 285.418 15.0662C283.44 13.9073 280.968 13.3554 278.111 13.3554C275.254 13.3554 273.221 13.7969 271.079 14.7351C268.936 15.6733 267.013 16.9426 265.365 18.5982C263.771 20.2539 262.453 22.1854 261.464 24.3929C260.475 26.6004 259.871 29.0287 259.651 31.6225C259.486 34.2715 259.651 36.755 260.31 38.9625C260.914 41.17 261.903 43.1015 263.222 44.702C264.541 46.3024 266.244 47.5717 268.277 48.4547C270.309 49.3377 272.672 49.7792 275.309 49.7792C279.1 49.7792 282.396 48.8411 285.198 47.0199C288 45.1987 290.198 42.2737 291.791 38.1347L283.221 39.128C282.726 39.8455 282.012 40.5077 281.023 41.17C279.594 42.1082 278.001 42.6049 276.133 42.6049C274.265 42.6049 271.628 41.8874 270.364 40.5077C269.101 39.0728 268.496 36.8653 268.606 33.83C268.606 33.83 292.835 32.6159 292.89 32.0088L292.945 32.064ZM144.879 27.8698C144.934 27.2075 145.154 26.4349 145.429 25.6071C145.758 24.7792 146.198 23.9514 146.857 23.1788C147.516 22.4062 148.341 21.7991 149.329 21.2472C150.318 20.7506 151.582 20.4746 153.01 20.4746C155.263 20.4746 156.856 21.0817 157.845 22.351C158.834 23.5651 158.999 24.1722 159.548 26.5453L144.824 27.8146L144.879 27.8698ZM168.724 32.064C168.833 30.0773 168.724 28.0905 168.449 26.2141C168.064 23.7859 167.24 21.5784 166.032 19.6468C164.823 17.7152 163.175 16.2252 161.197 15.0662C159.164 13.9073 156.746 13.3554 153.89 13.3554C151.033 13.3554 149 13.7969 146.857 14.7351C144.714 15.6733 142.791 16.9426 141.143 18.5982C139.55 20.2539 138.176 22.1854 137.188 24.3929C136.199 26.6004 135.594 29.0287 135.429 31.6225C135.21 34.2715 135.429 36.755 136.089 38.9625C136.693 41.17 137.682 43.1015 139.056 44.702C140.374 46.3024 142.077 47.5717 144.11 48.4547C146.143 49.3377 148.505 49.7792 151.088 49.7792C154.878 49.7792 158.175 48.8411 160.977 47.0199C163.779 45.1987 165.977 42.2737 167.625 38.1347L159.054 39.128C158.56 39.8455 157.845 40.5077 156.856 41.17C155.428 42.1082 153.835 42.6049 151.967 42.6049C150.099 42.6049 147.461 41.8874 146.198 40.5077C144.934 39.0728 144.33 36.8653 144.44 33.83C144.44 33.83 168.669 32.6159 168.724 32.0088V32.064ZM230.148 14.4592C227.565 17.1634 223.61 17.3841 220.808 16.0044L218.39 48.8962H227.565L230.148 14.5143M250.201 2.48344L241.246 8.27815L240.586 14.404H237.235L234.543 20.7506H240.092L238.554 41.1148C238.389 42.8808 238.554 44.2605 239.048 45.309C239.542 46.3576 240.257 47.2406 241.136 47.8477C242.07 48.4547 243.114 48.8411 244.377 49.0618C245.641 49.2826 246.96 49.3377 248.388 49.3377C249.816 49.3377 251.19 49.2826 251.19 49.2826L254.377 41.6115C253.497 41.777 252.563 41.8874 251.52 41.8874C249.981 41.8874 248.937 41.6115 248.498 41.0596C248.058 40.5077 247.839 39.4592 248.003 37.8587L249.322 20.7506H254.596L257.288 14.404H249.816L250.256 2.48344H250.201ZM127.793 2.48344L118.782 8.22296L118.178 14.3488H114.827L112.134 20.6954H117.683L116.09 41.0596C115.98 42.8256 116.09 44.2053 116.64 45.2539C117.134 46.3024 117.793 47.1854 118.727 47.7925C119.661 48.3996 120.76 48.7859 122.024 49.0066C123.287 49.2274 124.606 49.2826 126.035 49.2826C127.463 49.2826 128.836 49.2274 128.836 49.2274L132.023 41.5563C131.144 41.7219 130.21 41.8322 129.166 41.8322C127.628 41.8322 126.584 41.5563 126.144 41.0044C125.705 40.4525 125.485 39.404 125.65 37.8035L126.968 20.6954H132.243L134.935 14.3488H127.463L127.957 2.42826L127.793 2.48344Z" fill="#0066B3"/>
<path fill-rule="evenodd" clip-rule="evenodd" d="M231.137 7.94698C230.972 10.8167 228.445 13.0794 225.423 12.9139C222.401 12.7483 220.093 10.2649 220.258 7.3951C220.423 4.52535 222.95 2.26265 225.972 2.42822C228.994 2.59378 231.301 5.07722 231.137 7.94698Z" fill="#0066B3"/>
</g>
<defs>
<clipPath id="clip0_1595_429">
<rect width="293" height="50" fill="white"/>
</clipPath>
</defs>
</svg>
