<svg width="55" height="55" viewBox="0 0 55 55" fill="none" xmlns="http://www.w3.org/2000/svg">
<path d="M27.4424 54.8984C42.5984 54.8984 54.8848 42.609 54.8848 27.4492C54.8848 12.2894 42.5984 0 27.4424 0C12.2864 0 0 12.2894 0 27.4492C0 42.609 12.2864 54.8984 27.4424 54.8984Z" fill="white"/>
<path d="M41.6995 19.021C40.6919 19.466 39.6145 19.7662 38.4782 19.9056C39.636 19.2086 40.5257 18.1096 40.9438 16.8015C39.8611 17.4341 38.6551 17.8951 37.3795 18.1525C36.3557 17.0588 34.9032 16.3726 33.2846 16.3726C30.1866 16.3726 27.6728 18.887 27.6728 21.9803C27.6728 22.4253 27.7264 22.8542 27.8175 23.2617C23.1544 23.0419 19.0166 20.8009 16.251 17.4126C15.7632 18.2382 15.4899 19.1925 15.4899 20.238C15.4899 22.1894 16.4814 23.905 17.9876 24.9129C17.0657 24.8807 16.2027 24.6288 15.447 24.2106V24.2803C15.447 27.0038 17.3765 29.2715 19.9493 29.7862C19.4776 29.9149 18.9791 29.9792 18.4699 29.9792C18.1108 29.9792 17.7678 29.9471 17.4248 29.8827C18.143 32.113 20.2119 33.7374 22.6774 33.7803C20.764 35.2868 18.3306 36.1821 15.7203 36.1821C15.2755 36.1821 14.8306 36.1553 14.3857 36.107C16.8834 37.6993 19.826 38.6268 23.0044 38.6268C33.3221 38.6268 38.966 30.0757 38.966 22.6719C38.966 22.436 38.966 22.1948 38.9499 21.9535C40.0433 21.1655 41.0027 20.1736 41.7531 19.0478L41.6995 19.021Z" fill="#169D52"/>
<path d="M27.4424 54.8984C42.5984 54.8984 54.8848 42.609 54.8848 27.4492C54.8848 12.2894 42.5984 0 27.4424 0C12.2864 0 0 12.2894 0 27.4492C0 42.609 12.2864 54.8984 27.4424 54.8984Z" fill="white"/>
<path d="M29.5874 25.7908L37.6561 16.6138H35.7447L28.7358 24.5804L23.1419 16.6138H16.6885L25.1493 28.6619L16.6885 38.2842H18.5998L25.9967 29.8694L31.9055 38.2842H38.3589M19.2897 18.0241H22.226L35.7433 36.9432H32.8062" fill="#169D52"/>
</svg>
