<svg width="234" height="50" viewBox="0 0 234 50" fill="none" xmlns="http://www.w3.org/2000/svg">
<path d="M178.098 3.89026V45.8889H186.698V28.2701H194.148V45.8889H202.711V3.89026H194.154V20.6209H186.692V3.89026H178.098Z" fill="#ED1C24"/>
<path d="M111.758 3.89026V45.8889H119.633V19.1887L124.261 45.8889H129.497L134.201 19.1887V45.8889H142.107V3.89026H130.391L126.926 24.0796L123.467 3.89026H111.758Z" fill="#ED1C24"/>
<path d="M62.2988 3.89026L67.5403 22.6536L72.7757 3.89026H81.3326L72.1065 32.1103V45.8889H62.9741V32.1103L53.748 3.89026H62.2988Z" fill="#ED1C24"/>
<path d="M99.4976 3.89026H88.1134L80.6387 45.8889H89.1391L90.5717 35.8942H96.9956L98.4279 45.8889H106.978L99.4911 3.89026H99.4976ZM93.7866 13.3845L95.9134 28.2701H91.6663L93.7931 13.3845H93.7866Z" fill="#ED1C24"/>
<path d="M165.781 3.89026H154.396L146.922 45.8889H155.422L156.855 35.8942H163.285L164.717 45.8889H173.268L165.781 3.89026ZM160.07 13.3845L162.196 28.2701H157.949L160.076 13.3845H160.07Z" fill="#ED1C24"/>
<path d="M226.429 3.89026H215.051L207.576 45.8889H216.077L217.509 35.8942H223.939L225.372 45.8889H233.922L226.435 3.89026H226.429ZM220.724 13.3845L222.851 28.2701H218.604L220.73 13.3845H220.724Z" fill="#ED1C24"/>
<path d="M24.8259 0C11.115 0 0 11.1142 0 24.8239C0 38.5336 11.115 49.6476 24.8259 49.6476C38.5368 49.6476 49.6519 38.5336 49.6519 24.8239C49.6519 11.1142 38.5303 0 24.8259 0ZM45.0795 37.0576L41.6705 36.3007C37.9988 41.6734 31.8252 45.207 24.8196 45.207C17.8141 45.207 11.6467 41.6796 7.96879 36.3007L4.56612 37.0514C4.37219 37.0762 4.16581 36.9826 4.05945 36.8012C3.95312 36.6198 3.97188 36.4009 4.09074 36.2446L6.44885 33.6675C5.15409 30.9908 4.42851 27.9887 4.42851 24.8177C4.42851 14.0725 12.7476 5.26625 23.2997 4.48443L24.3505 1.15707C24.4255 0.96944 24.6069 0.844349 24.8196 0.844349C25.0323 0.844349 25.2074 0.96944 25.2887 1.15082L26.3396 4.47819C36.8915 5.25373 45.2106 14.06 45.2106 24.8114C45.2106 27.9824 44.4851 30.9845 43.1905 33.6613L45.5421 36.2319C45.6612 36.3885 45.6798 36.6136 45.5796 36.795C45.4736 36.9764 45.2733 37.07 45.0795 37.0452V37.0576Z" fill="#ED1C24"/>
<path d="M45.1041 36.3819L39.9751 30.9095C39.2622 31.2159 38.4175 31.1909 37.692 30.7781C36.9664 30.3591 36.5285 29.6461 36.4349 28.8768C36.2972 27.7322 35.6343 26.6502 34.5521 26.0247L32.4755 24.8239L41.7391 19.4763L40.7196 17.7063L30.4363 23.6418L28.6474 22.6098V20.5521L38.9304 14.6166L37.9109 12.8529L28.6474 18.2004V15.7987C28.6474 14.5478 28.0469 13.4346 27.1149 12.7341H27.1212C26.502 12.2712 26.1017 11.5332 26.1017 10.6951C26.1017 9.85701 26.5082 9.11273 27.1275 8.64988L24.9508 1.47604C24.9382 1.41975 24.8944 1.35095 24.8256 1.35095C24.7568 1.35095 24.7006 1.40724 24.7006 1.47604L22.5238 8.64988C23.1493 9.11273 23.5496 9.85701 23.5496 10.6951C23.5496 11.5332 23.1493 12.2712 22.5301 12.7341H22.5426C21.6106 13.4283 21.0039 14.5416 21.0039 15.7987V18.1942L11.7466 12.8466L10.727 14.6166L21.0101 20.5521V22.6098L19.2275 23.6418L8.94433 17.7063L7.92479 19.4701L17.1883 24.8176L15.0992 26.0247H15.1117C14.0296 26.6439 13.3666 27.7197 13.229 28.883V28.8705C13.1352 29.6398 12.6911 30.3591 11.9717 30.7781C11.2462 31.1972 10.4018 31.2159 9.68244 30.9095L4.55964 36.3819C4.51586 36.4198 4.4783 36.4948 4.50959 36.5571C4.54088 36.6198 4.62218 36.6384 4.68472 36.6009L11.9842 34.8998C12.0781 34.1305 12.5159 33.4049 13.2415 32.986C13.9608 32.5669 14.8052 32.5481 15.5183 32.8483C16.5879 33.2985 17.8514 33.2675 18.9335 32.6418L21.0101 31.4411V42.136H23.0492V30.2653L24.8319 29.2333L26.6146 30.259V42.1298H28.6537V31.4348L30.7303 32.6356C31.8124 33.261 33.082 33.2985 34.1518 32.8359H34.1456C34.8585 32.5356 35.7031 32.5606 36.4287 32.9798C37.1543 33.3987 37.5983 34.1181 37.6858 34.8936L44.9853 36.5947C45.0352 36.6136 45.123 36.6136 45.1605 36.5509C45.198 36.4883 45.1791 36.4133 45.1168 36.3757L45.1041 36.3819ZM20.9976 29.0894L17.9014 30.8782C17.0445 31.3723 15.9561 31.0783 15.462 30.2277C14.9678 29.3709 15.2618 28.2826 16.1125 27.7885L19.2087 25.9997L20.9914 27.0317V29.0894H20.9976ZM26.6083 25.8496L24.8256 26.8816L23.043 25.8496V23.7919L24.8256 22.7599L26.6083 23.7919V25.8496ZM26.6083 19.3763L24.8256 20.402L23.043 19.37V15.7987C23.043 14.8168 23.8436 14.0162 24.8256 14.0162C25.8077 14.0162 26.6083 14.8168 26.6083 15.7987V19.3763ZM34.1831 30.2215C33.6888 31.0721 32.6005 31.3661 31.7436 30.8719L28.6474 29.0832V27.0254L30.4363 25.9935L33.5326 27.7822C34.3893 28.2764 34.6771 29.3646 34.1831 30.2215Z" fill="#ED1C24"/>
</svg>
